<svg width="34" height="97" viewBox="0 0 34 97" fill="none" xmlns="http://www.w3.org/2000/svg">
<path d="M29.9621 0.000446599C29.8942 -0.000857726 29.8281 0.0226012 29.7761 0.0664483L22.3459 8.89068L20.8299 14.1028C19.7689 14.0694 18.7074 14.0534 17.6458 14.0548C9.92561 14.0548 3.65344 14.8748 3.65344 15.8869C3.65344 18.3069 31.6342 18.3069 31.6342 15.8869C31.6342 15.1368 28.2841 14.5048 23.454 14.2048L24.654 9.9147L31.6042 1.55449L31.6142 1.54249C31.7702 1.38248 31.4662 0.89447 30.9702 0.468459C30.5981 0.14845 30.2081 -0.00955366 29.9621 0.000446599V0.000446599ZM20.2599 16.1529L20.2319 16.2349C20.2199 16.2449 20.2199 16.2589 20.2199 16.2709C20.2199 16.4209 20.8259 16.5429 21.5639 16.5429C22.3039 16.5429 22.9119 16.4209 22.9119 16.2709L22.9359 16.1769C23.1299 16.2469 23.2359 16.3269 23.2359 16.4189C23.2359 16.6609 22.4859 16.8589 21.5519 16.8489C20.6439 16.8489 19.8919 16.6649 19.8919 16.4229C19.8919 16.3189 20.0419 16.2229 20.2599 16.1529V16.1529ZM31.4802 16.8409C27.7761 18.8149 7.55354 18.8289 3.83745 16.8689L5.48149 31.3333C6.19551 29.0272 8.00156 25.9131 10.3256 24.9691C11.0856 24.6571 11.8617 24.6591 12.5857 25.0751C13.2177 25.4211 13.7497 26.1471 13.8097 26.4351C13.9557 27.1851 13.5697 27.4812 13.2677 27.4812C12.9037 27.4812 12.6257 26.9531 12.4437 26.6411C11.9477 25.8011 11.1956 25.7631 10.3956 26.3171C9.5596 26.8931 8.83358 27.8632 8.32556 28.7052C7.697 29.7183 7.20792 30.8115 6.87153 31.9553C6.69152 32.6013 6.52352 33.6353 6.80152 34.2473C6.92353 34.5013 7.10353 34.6613 7.39554 34.6613C8.00156 34.6613 8.88158 33.9013 9.30559 33.4973C9.8496 32.9793 10.5516 32.1713 10.8176 31.6533L11.4496 29.8692C11.7637 29.0852 12.6457 29.2232 12.6457 29.8692C12.6457 31.0452 12.2017 31.4373 11.4396 33.8693C10.7376 36.1174 10.5176 36.8454 10.5176 36.8454C10.4336 37.1654 10.1056 37.7094 9.7556 37.7094C9.6096 37.7094 9.50359 37.6594 9.44359 37.5694C9.32159 37.4054 9.33359 36.9614 9.34359 36.8454C9.36959 36.4774 10.1056 34.2853 10.2276 33.9393C9.97903 34.2021 9.72085 34.4556 9.45359 34.6993C8.79957 35.2894 7.74955 36.0594 6.85353 36.0594C6.52173 36.0711 6.19517 35.9742 5.9235 35.7834L6.84152 44.9596C7.08153 45.5356 11.5876 46.9317 17.5178 46.9317C23.458 46.9317 27.9581 45.5256 28.1901 44.9596L29.5101 34.0553C28.8201 34.6553 28.0221 35.3954 27.1381 35.7634C26.484 36.0294 25.032 36.1994 25.032 35.1034C25.032 34.5033 26.136 33.3993 26.776 32.6273C26.946 32.4313 27.3421 31.9473 27.3421 31.6933C27.3421 31.3593 26.618 31.4353 25.928 31.9773C25.5344 32.3091 25.1801 32.6849 24.872 33.0973C24.352 33.7913 24.076 34.3873 23.846 34.8833C23.0959 36.5194 23.35 35.8754 22.7439 37.4194C22.1379 38.9535 22.2359 38.7795 22.1139 39.0335C22.0127 39.2543 21.843 39.4367 21.6299 39.5535C21.514 39.6107 21.3854 39.6375 21.2562 39.6312C21.1271 39.6249 21.0017 39.5857 20.8919 39.5175C20.7839 39.4475 20.7319 39.2975 20.7319 39.0915C20.7319 38.9875 20.7479 38.8835 20.7719 38.7794C20.9519 38.0754 21.7159 36.6934 22.5879 34.8253C22.7819 34.3993 22.7079 34.5253 22.6819 34.5593C21.9319 35.2514 21.3619 35.5874 20.9399 35.7714C20.2379 36.0714 19.3659 36.0714 19.1858 35.2974C19.1738 35.2514 19.1738 35.2034 19.1618 35.1574C17.7338 36.2174 16.2218 36.5054 16.7418 34.2233C16.1878 35.1694 15.2157 35.9434 14.0277 35.9434C13.5337 35.9434 13.1697 35.7834 12.9897 35.3574C12.7117 34.7233 13.1457 33.6373 13.5437 32.6113C13.7497 32.0913 14.0317 31.4713 14.4077 30.7432C14.6017 30.3512 14.9137 30.1192 15.3257 30.2232C15.3936 30.2441 15.4593 30.2715 15.5217 30.3052C15.8358 30.5132 15.7138 30.8212 15.5558 31.1333C15.0957 31.9973 14.6957 32.6333 14.4317 33.5333C14.3237 33.9133 14.1877 34.5733 14.6117 34.5733C14.912 34.5682 15.2033 34.4704 15.4457 34.2933C16.0018 33.9013 16.4498 33.3153 16.7898 32.7393C17.0643 32.2911 17.2921 31.8159 17.4698 31.3213C17.5298 31.1253 17.6058 30.9412 17.6898 30.7672C17.8238 30.4792 18.0018 30.1812 18.3178 30.1812C18.4758 30.1812 18.6058 30.2392 18.7038 30.3532C18.9098 30.6072 18.8638 30.8672 18.7558 31.1453C18.5138 31.7913 18.1878 32.3693 17.9198 33.0713C17.7598 33.4753 17.5918 33.9933 17.5918 34.4193C17.5918 34.8113 18.0398 34.7193 18.4158 34.5553C18.7058 34.4293 18.9958 34.2353 19.2398 34.0413C19.3858 33.4773 19.3478 33.6013 22.4359 26.1771C22.5939 25.7971 22.8839 25.6331 23.1739 25.6331C23.3129 25.636 23.4476 25.6814 23.56 25.7631C23.766 25.9131 23.77 26.2311 23.686 26.4731C23.602 26.6931 23.61 26.6251 23.1379 27.6852C22.5079 29.0792 22.0979 30.0852 21.5399 31.3653C21.3099 31.8953 20.6099 33.5433 20.4899 33.9353C20.4179 34.1893 20.3299 34.6033 20.6099 34.6033C21.2659 34.6033 22.9479 33.0913 23.408 32.6433C23.432 32.6073 23.468 32.5953 23.518 32.5713C23.59 32.3513 23.66 32.1473 23.72 31.9393C23.89 31.4993 24.048 30.9892 24.364 30.6332C24.46 30.5172 24.57 30.4512 24.69 30.4512C25.028 30.4512 25.196 30.5872 25.196 30.9112C25.196 31.0372 25.116 31.5013 25.064 31.6273C25.234 31.4553 25.414 31.2833 25.608 31.1113C27.4241 29.5092 28.7161 30.3252 28.7161 31.1333C28.7161 31.9853 27.6401 33.1733 27.048 33.8293C26.854 34.0493 26.456 34.4513 26.444 34.5693C26.444 34.7173 26.55 34.7793 26.708 34.7793C26.95 34.7793 27.4841 34.3733 27.6781 34.2353C28.2841 33.7853 29.1041 33.0953 29.6861 32.6113L31.4782 16.8409H31.4802ZM7.51354 46.0616L9.31759 48.9917L10.0216 58.1439C10.0216 59.17 13.4457 60 17.6578 60C21.8699 60 25.294 59.17 25.294 58.1439L25.854 48.8977L27.5561 46.0616C22.7619 47.9877 12.5017 48.0557 7.51354 46.0616Z" fill="#00094A"/>
<path d="M8.38891 89.044H9.73291V92.866C9.24757 93.2673 8.68291 93.5753 8.03891 93.79C7.39491 94.0047 6.72291 94.112 6.02291 94.112C5.03357 94.112 4.14224 93.8973 3.34891 93.468C2.55557 93.0293 1.93024 92.432 1.47291 91.676C1.02491 90.9107 0.800906 90.052 0.800906 89.1C0.800906 88.148 1.02491 87.2893 1.47291 86.524C1.93024 85.7587 2.55557 85.1613 3.34891 84.732C4.15157 84.3027 5.05224 84.088 6.05091 84.088C6.83491 84.088 7.54424 84.2187 8.17891 84.48C8.82291 84.732 9.36891 85.1053 9.81691 85.6L8.94891 86.468C8.16491 85.712 7.21757 85.334 6.10691 85.334C5.36024 85.334 4.68824 85.4973 4.09091 85.824C3.50291 86.1413 3.04091 86.5893 2.70491 87.168C2.36891 87.7373 2.20091 88.3813 2.20091 89.1C2.20091 89.8093 2.36891 90.4533 2.70491 91.032C3.04091 91.6013 3.50291 92.0493 4.09091 92.376C4.68824 92.7027 5.35557 92.866 6.09291 92.866C6.97024 92.866 7.73557 92.656 8.38891 92.236V89.044ZM19.1334 86.58V94H17.8594V92.88C17.5887 93.2627 17.2294 93.5613 16.7814 93.776C16.3427 93.9813 15.862 94.084 15.3394 94.084C14.35 94.084 13.5707 93.8133 13.0014 93.272C12.432 92.7213 12.1474 91.914 12.1474 90.85V86.58H13.4914V90.696C13.4914 91.4147 13.664 91.9607 14.0094 92.334C14.3547 92.698 14.8494 92.88 15.4934 92.88C16.2027 92.88 16.7627 92.6653 17.1734 92.236C17.584 91.8067 17.7894 91.2 17.7894 90.416V86.58H19.1334ZM21.692 83.612H23.036V94H21.692V83.612ZM29.5361 86.51C30.2548 86.51 30.8988 86.6687 31.4681 86.986C32.0375 87.3033 32.4808 87.7467 32.7981 88.316C33.1248 88.8853 33.2881 89.5433 33.2881 90.29C33.2881 91.0367 33.1248 91.6993 32.7981 92.278C32.4808 92.8473 32.0375 93.2907 31.4681 93.608C30.8988 93.9253 30.2548 94.084 29.5361 94.084C29.0041 94.084 28.5141 93.9813 28.0661 93.776C27.6275 93.5707 27.2541 93.272 26.9461 92.88V96.716H25.6021V86.58H26.8901V87.756C27.1888 87.3453 27.5668 87.0373 28.0241 86.832C28.4815 86.6173 28.9855 86.51 29.5361 86.51ZM29.4241 92.908C29.9001 92.908 30.3248 92.8007 30.6981 92.586C31.0808 92.362 31.3795 92.054 31.5941 91.662C31.8181 91.2607 31.9301 90.8033 31.9301 90.29C31.9301 89.7767 31.8181 89.324 31.5941 88.932C31.3795 88.5307 31.0808 88.2227 30.6981 88.008C30.3248 87.7933 29.9001 87.686 29.4241 87.686C28.9575 87.686 28.5328 87.798 28.1501 88.022C27.7768 88.2367 27.4781 88.54 27.2541 88.932C27.0395 89.324 26.9321 89.7767 26.9321 90.29C26.9321 90.8033 27.0395 91.2607 27.2541 91.662C27.4688 92.054 27.7675 92.362 28.1501 92.586C28.5328 92.8007 28.9575 92.908 29.4241 92.908Z" fill="black"/>
</svg>
