<svg width="56" height="97" viewBox="0 0 56 97" fill="none" xmlns="http://www.w3.org/2000/svg">
<path d="M26.6301 59.9998C25.8033 59.9998 25.0316 59.7793 24.3151 59.3935L16.9838 55.0388C15.8814 54.4325 16.4326 54.212 16.7633 54.1018C18.2515 53.6057 18.5271 53.4955 20.0704 52.6134C20.236 52.5031 20.4565 52.5583 20.6216 52.6685L26.2442 56.031C26.4647 56.1412 26.7403 56.1412 26.9057 56.031L48.8994 43.298C49.1198 43.1877 49.2301 42.9673 49.2301 42.6917V17.2804C49.2301 17.0048 49.1198 16.7843 48.8994 16.674L26.9057 3.99595C26.6852 3.88571 26.4096 3.88571 26.2442 3.99595L4.25054 16.6743C4.03007 16.7845 3.91983 17.0601 3.91983 17.2806V42.6917C3.91983 42.9121 4.03007 43.1877 4.25054 43.298L10.259 46.7705C13.5112 48.4241 15.5504 46.4949 15.5504 44.5657V19.4851C15.5504 19.1544 15.8262 18.8237 16.2121 18.8237H19.0234C19.3541 18.8237 19.6848 19.0993 19.6848 19.4851V44.5655C19.6848 48.9202 17.3145 51.4557 13.1803 51.4557C11.9126 51.4557 10.9204 51.4557 8.10932 50.0777L2.32136 46.7705C0.888259 45.9435 0.00634766 44.4002 0.00634766 42.7466V17.3357C0.00634766 15.6821 0.888259 14.1388 2.32136 13.3118L24.3151 0.578754C25.693 -0.192918 27.5671 -0.192918 28.9451 0.578754L50.9388 13.3118C52.3719 14.1386 53.2538 15.6819 53.2538 17.3357V42.7468C53.2538 44.4004 52.3719 45.9437 50.9388 46.7705L28.9451 59.5039C28.2285 59.8346 27.4017 60 26.6301 60V59.9998ZM33.41 42.5261C23.7637 42.5261 21.7794 38.1165 21.7794 34.3682C21.7794 34.0375 22.055 33.7068 22.4408 33.7068H25.307C25.6377 33.7068 25.9135 33.9273 25.9135 34.258C26.3545 37.1793 27.6222 38.6126 33.4651 38.6126C38.0953 38.6126 40.0798 37.5653 40.0798 35.085C40.0798 33.6517 39.5286 32.6044 32.3076 31.8876C26.2994 31.2813 22.551 29.9585 22.551 25.1631C22.551 20.698 26.2991 18.0522 32.5832 18.0522C39.6387 18.0522 43.1114 20.4775 43.5524 25.7692C43.5524 25.9345 43.4972 26.0999 43.387 26.2652C43.2768 26.3755 43.1114 26.4857 42.946 26.4857H40.0798C39.804 26.4857 39.5286 26.2652 39.4733 25.9896C38.8119 22.9581 37.1032 21.9659 32.5832 21.9659C27.5122 21.9659 26.9057 23.7297 26.9057 25.0526C26.9057 26.6513 27.6222 27.1472 34.4572 28.0291C41.2373 28.911 44.4343 30.1789 44.4343 34.9194C44.3792 39.7701 40.4106 42.5261 33.41 42.5261Z" fill="#00094A"/>
<path d="M10.2862 84.2V94H9.13818L3.25818 86.692V94H1.85818V84.2H3.00618L8.88618 91.508V84.2H10.2862ZM16.2015 94.084C15.4642 94.084 14.8015 93.9207 14.2135 93.594C13.6255 93.2673 13.1635 92.8193 12.8275 92.25C12.5008 91.6713 12.3375 91.018 12.3375 90.29C12.3375 89.562 12.5008 88.9133 12.8275 88.344C13.1635 87.7653 13.6255 87.3173 14.2135 87C14.8015 86.6733 15.4642 86.51 16.2015 86.51C16.9388 86.51 17.5968 86.6733 18.1755 87C18.7635 87.3173 19.2208 87.7653 19.5475 88.344C19.8835 88.9133 20.0515 89.562 20.0515 90.29C20.0515 91.018 19.8835 91.6713 19.5475 92.25C19.2208 92.8193 18.7635 93.2673 18.1755 93.594C17.5968 93.9207 16.9388 94.084 16.2015 94.084ZM16.2015 92.908C16.6775 92.908 17.1022 92.8007 17.4755 92.586C17.8582 92.362 18.1568 92.054 18.3715 91.662C18.5862 91.2607 18.6935 90.8033 18.6935 90.29C18.6935 89.7767 18.5862 89.324 18.3715 88.932C18.1568 88.5307 17.8582 88.2227 17.4755 88.008C17.1022 87.7933 16.6775 87.686 16.2015 87.686C15.7255 87.686 15.2962 87.7933 14.9135 88.008C14.5402 88.2227 14.2415 88.5307 14.0175 88.932C13.8028 89.324 13.6955 89.7767 13.6955 90.29C13.6955 90.8033 13.8028 91.2607 14.0175 91.662C14.2415 92.054 14.5402 92.362 14.9135 92.586C15.2962 92.8007 15.7255 92.908 16.2015 92.908ZM28.9102 83.612V94H27.6222V92.824C27.3236 93.2347 26.9456 93.5473 26.4882 93.762C26.0309 93.9767 25.5269 94.084 24.9762 94.084C24.2576 94.084 23.6136 93.9253 23.0442 93.608C22.4749 93.2907 22.0269 92.8473 21.7002 92.278C21.3829 91.6993 21.2242 91.0367 21.2242 90.29C21.2242 89.5433 21.3829 88.8853 21.7002 88.316C22.0269 87.7467 22.4749 87.3033 23.0442 86.986C23.6136 86.6687 24.2576 86.51 24.9762 86.51C25.5082 86.51 25.9982 86.6127 26.4462 86.818C26.8942 87.014 27.2676 87.308 27.5662 87.7V83.612H28.9102ZM25.0882 92.908C25.5549 92.908 25.9796 92.8007 26.3622 92.586C26.7449 92.362 27.0436 92.054 27.2582 91.662C27.4729 91.2607 27.5802 90.8033 27.5802 90.29C27.5802 89.7767 27.4729 89.324 27.2582 88.932C27.0436 88.5307 26.7449 88.2227 26.3622 88.008C25.9796 87.7933 25.5549 87.686 25.0882 87.686C24.6122 87.686 24.1829 87.7933 23.8002 88.008C23.4269 88.2227 23.1282 88.5307 22.9042 88.932C22.6896 89.324 22.5822 89.7767 22.5822 90.29C22.5822 90.8033 22.6896 91.2607 22.9042 91.662C23.1282 92.054 23.4269 92.362 23.8002 92.586C24.1829 92.8007 24.6122 92.908 25.0882 92.908ZM38.1592 90.332C38.1592 90.4347 38.1499 90.57 38.1312 90.738H32.1112C32.1952 91.3913 32.4799 91.9187 32.9652 92.32C33.4599 92.712 34.0712 92.908 34.7992 92.908C35.6859 92.908 36.3999 92.6093 36.9412 92.012L37.6832 92.88C37.3472 93.272 36.9272 93.5707 36.4232 93.776C35.9285 93.9813 35.3732 94.084 34.7572 94.084C33.9732 94.084 33.2779 93.9253 32.6712 93.608C32.0645 93.2813 31.5932 92.8287 31.2572 92.25C30.9305 91.6713 30.7672 91.018 30.7672 90.29C30.7672 89.5713 30.9259 88.9227 31.2432 88.344C31.5699 87.7653 32.0132 87.3173 32.5732 87C33.1425 86.6733 33.7819 86.51 34.4912 86.51C35.2005 86.51 35.8305 86.6733 36.3812 87C36.9412 87.3173 37.3752 87.7653 37.6832 88.344C38.0005 88.9227 38.1592 89.5853 38.1592 90.332ZM34.4912 87.644C33.8472 87.644 33.3059 87.84 32.8672 88.232C32.4379 88.624 32.1859 89.1373 32.1112 89.772H36.8712C36.7965 89.1467 36.5399 88.638 36.1012 88.246C35.6719 87.8447 35.1352 87.644 34.4912 87.644ZM41.4815 94.112C40.8935 94.112 40.3475 93.9907 39.8435 93.748C39.3395 93.496 38.9335 93.146 38.6255 92.698L39.4375 91.746C39.9788 92.5207 40.6601 92.908 41.4815 92.908C42.0321 92.908 42.4475 92.74 42.7275 92.404C43.0168 92.068 43.1615 91.5733 43.1615 90.92V85.418H39.6195V84.2H44.5475V90.85C44.5475 91.9327 44.2861 92.7493 43.7635 93.3C43.2501 93.8413 42.4895 94.112 41.4815 94.112ZM50.2552 94.112C49.5179 94.112 48.8039 94 48.1132 93.776C47.4319 93.5427 46.8952 93.244 46.5032 92.88L47.0212 91.788C47.3945 92.124 47.8705 92.3993 48.4492 92.614C49.0372 92.8193 49.6392 92.922 50.2552 92.922C51.0672 92.922 51.6739 92.7867 52.0752 92.516C52.4765 92.236 52.6772 91.8673 52.6772 91.41C52.6772 91.074 52.5652 90.8033 52.3412 90.598C52.1265 90.3833 51.8559 90.22 51.5292 90.108C51.2119 89.996 50.7592 89.87 50.1712 89.73C49.4339 89.5527 48.8365 89.3753 48.3792 89.198C47.9312 89.0207 47.5439 88.75 47.2172 88.386C46.8999 88.0127 46.7412 87.5133 46.7412 86.888C46.7412 86.3653 46.8765 85.894 47.1472 85.474C47.4272 85.054 47.8472 84.718 48.4072 84.466C48.9672 84.214 49.6625 84.088 50.4932 84.088C51.0719 84.088 51.6412 84.1627 52.2012 84.312C52.7612 84.4613 53.2419 84.676 53.6432 84.956L53.1812 86.076C52.7705 85.8147 52.3319 85.6187 51.8652 85.488C51.3985 85.348 50.9412 85.278 50.4932 85.278C49.6999 85.278 49.1025 85.4227 48.7012 85.712C48.3092 86.0013 48.1132 86.3747 48.1132 86.832C48.1132 87.168 48.2252 87.4433 48.4492 87.658C48.6732 87.8633 48.9485 88.0267 49.2752 88.148C49.6112 88.26 50.0639 88.3813 50.6332 88.512C51.3705 88.6893 51.9632 88.8667 52.4112 89.044C52.8592 89.2213 53.2419 89.492 53.5592 89.856C53.8859 90.22 54.0492 90.71 54.0492 91.326C54.0492 91.8393 53.9092 92.3107 53.6292 92.74C53.3492 93.16 52.9245 93.496 52.3552 93.748C51.7859 93.9907 51.0859 94.112 50.2552 94.112Z" fill="black"/>
</svg>
