<svg width="77" height="97" viewBox="0 0 77 97" fill="none" xmlns="http://www.w3.org/2000/svg">
<path d="M8.00635 30V60H68.0063V0H8.00635V30Z" fill="#00094A"/>
<path d="M21.2746 30.1993L21.2556 32.6563H29.065V54.8469H34.5892V32.6563H42.3986V30.2469C42.3986 28.9133 42.37 27.7991 42.332 27.7705C42.3034 27.7325 37.551 27.7133 31.7891 27.7229L21.3034 27.7515L21.2748 30.1991L21.2746 30.1993Z" fill="white"/>
<path d="M56.4204 27.6815C57.9441 28.0626 59.1062 28.7385 60.1728 29.8434C60.7252 30.434 61.5441 31.5102 61.6109 31.7673C61.6297 31.8435 59.0204 33.5959 57.4395 34.5768C57.3823 34.615 57.1536 34.3673 56.8965 33.9862C56.1251 32.8626 55.3156 32.3767 54.0774 32.2912C52.2587 32.1672 51.087 33.1197 51.0966 34.7099C51.0966 35.1768 51.1632 35.4529 51.3537 35.834C51.7538 36.6625 52.4965 37.1577 54.83 38.1672C59.1251 40.015 60.9631 41.234 62.1062 42.9672C63.3823 44.9008 63.668 47.9863 62.8013 50.2816C61.849 52.7767 59.4872 54.4722 56.1631 55.034C55.1347 55.2149 52.6967 55.1863 51.5919 54.9864C49.1825 54.5577 46.8966 53.3673 45.4871 51.8055C44.9347 51.1959 43.8584 49.6054 43.9252 49.491C43.9538 49.4531 44.2013 49.3007 44.4774 49.1388C44.7441 48.9864 45.7538 48.4052 46.7061 47.853L48.4299 46.8529L48.7918 47.3863C49.2966 48.1577 50.4012 49.2149 51.068 49.5672C52.9822 50.5769 55.6109 50.4339 56.9061 49.2719C57.4585 48.7673 57.687 48.2434 57.687 47.4719C57.687 46.7767 57.6012 46.472 57.2394 45.9484C56.773 45.2816 55.8204 44.7196 53.1155 43.5484C50.0204 42.2149 48.687 41.3863 47.468 40.072C46.7633 39.3102 46.0965 38.091 45.8204 37.072C45.5919 36.2245 45.5344 34.1006 45.7156 33.2434C46.3538 30.2528 48.6108 28.1673 51.8679 27.5481C52.925 27.3482 55.3822 27.4244 56.4204 27.6817V27.6815Z" fill="white"/>
<path d="M3.78368 85.418H0.423676V84.2H8.52968V85.418H5.16968V94H3.78368V85.418ZM15.9596 86.58L12.3616 94.742C12.0443 95.498 11.671 96.03 11.2416 96.338C10.8216 96.646 10.313 96.8 9.71563 96.8C9.35163 96.8 8.99696 96.7393 8.65163 96.618C8.31563 96.506 8.03563 96.338 7.81163 96.114L8.38563 95.106C8.7683 95.47 9.21163 95.652 9.71563 95.652C10.0423 95.652 10.313 95.5633 10.5276 95.386C10.7516 95.218 10.9523 94.924 11.1296 94.504L11.3676 93.986L8.09163 86.58H9.49163L12.0816 92.516L14.6436 86.58H15.9596ZM21.1479 86.51C21.8666 86.51 22.5106 86.6687 23.0799 86.986C23.6493 87.3033 24.0926 87.7467 24.4099 88.316C24.7366 88.8853 24.8999 89.5433 24.8999 90.29C24.8999 91.0367 24.7366 91.6993 24.4099 92.278C24.0926 92.8473 23.6493 93.2907 23.0799 93.608C22.5106 93.9253 21.8666 94.084 21.1479 94.084C20.6159 94.084 20.1259 93.9813 19.6779 93.776C19.2393 93.5707 18.8659 93.272 18.5579 92.88V96.716H17.2139V86.58H18.5019V87.756C18.8006 87.3453 19.1786 87.0373 19.6359 86.832C20.0933 86.6173 20.5973 86.51 21.1479 86.51ZM21.0359 92.908C21.5119 92.908 21.9366 92.8007 22.3099 92.586C22.6926 92.362 22.9913 92.054 23.2059 91.662C23.4299 91.2607 23.5419 90.8033 23.5419 90.29C23.5419 89.7767 23.4299 89.324 23.2059 88.932C22.9913 88.5307 22.6926 88.2227 22.3099 88.008C21.9366 87.7933 21.5119 87.686 21.0359 87.686C20.5693 87.686 20.1446 87.798 19.7619 88.022C19.3886 88.2367 19.0899 88.54 18.8659 88.932C18.6513 89.324 18.5439 89.7767 18.5439 90.29C18.5439 90.8033 18.6513 91.2607 18.8659 91.662C19.0806 92.054 19.3793 92.362 19.7619 92.586C20.1446 92.8007 20.5693 92.908 21.0359 92.908ZM33.4629 90.332C33.4629 90.4347 33.4536 90.57 33.4349 90.738H27.4149C27.4989 91.3913 27.7836 91.9187 28.2689 92.32C28.7636 92.712 29.3749 92.908 30.1029 92.908C30.9896 92.908 31.7036 92.6093 32.2449 92.012L32.9869 92.88C32.6509 93.272 32.2309 93.5707 31.7269 93.776C31.2322 93.9813 30.6769 94.084 30.0609 94.084C29.2769 94.084 28.5816 93.9253 27.9749 93.608C27.3682 93.2813 26.8969 92.8287 26.5609 92.25C26.2342 91.6713 26.0709 91.018 26.0709 90.29C26.0709 89.5713 26.2296 88.9227 26.5469 88.344C26.8736 87.7653 27.3169 87.3173 27.8769 87C28.4462 86.6733 29.0856 86.51 29.7949 86.51C30.5042 86.51 31.1342 86.6733 31.6849 87C32.2449 87.3173 32.6789 87.7653 32.9869 88.344C33.3042 88.9227 33.4629 89.5853 33.4629 90.332ZM29.7949 87.644C29.1509 87.644 28.6096 87.84 28.1709 88.232C27.7416 88.624 27.4896 89.1373 27.4149 89.772H32.1749C32.1002 89.1467 31.8436 88.638 31.4049 88.246C30.9756 87.8447 30.4389 87.644 29.7949 87.644ZM38.3812 94.112C37.6438 94.112 36.9298 94 36.2392 93.776C35.5578 93.5427 35.0212 93.244 34.6292 92.88L35.1472 91.788C35.5205 92.124 35.9965 92.3993 36.5752 92.614C37.1632 92.8193 37.7652 92.922 38.3812 92.922C39.1932 92.922 39.7998 92.7867 40.2012 92.516C40.6025 92.236 40.8032 91.8673 40.8032 91.41C40.8032 91.074 40.6912 90.8033 40.4672 90.598C40.2525 90.3833 39.9818 90.22 39.6552 90.108C39.3378 89.996 38.8852 89.87 38.2972 89.73C37.5598 89.5527 36.9625 89.3753 36.5052 89.198C36.0572 89.0207 35.6698 88.75 35.3432 88.386C35.0258 88.0127 34.8672 87.5133 34.8672 86.888C34.8672 86.3653 35.0025 85.894 35.2732 85.474C35.5532 85.054 35.9732 84.718 36.5332 84.466C37.0932 84.214 37.7885 84.088 38.6192 84.088C39.1978 84.088 39.7672 84.1627 40.3272 84.312C40.8872 84.4613 41.3678 84.676 41.7692 84.956L41.3072 86.076C40.8965 85.8147 40.4578 85.6187 39.9912 85.488C39.5245 85.348 39.0672 85.278 38.6192 85.278C37.8258 85.278 37.2285 85.4227 36.8272 85.712C36.4352 86.0013 36.2392 86.3747 36.2392 86.832C36.2392 87.168 36.3512 87.4433 36.5752 87.658C36.7992 87.8633 37.0745 88.0267 37.4012 88.148C37.7372 88.26 38.1898 88.3813 38.7592 88.512C39.4965 88.6893 40.0892 88.8667 40.5372 89.044C40.9852 89.2213 41.3678 89.492 41.6852 89.856C42.0118 90.22 42.1752 90.71 42.1752 91.326C42.1752 91.8393 42.0352 92.3107 41.7552 92.74C41.4752 93.16 41.0505 93.496 40.4812 93.748C39.9118 93.9907 39.2118 94.112 38.3812 94.112ZM47.2585 94.084C46.5025 94.084 45.8258 93.9207 45.2285 93.594C44.6405 93.2673 44.1785 92.8193 43.8425 92.25C43.5065 91.6713 43.3385 91.018 43.3385 90.29C43.3385 89.562 43.5065 88.9133 43.8425 88.344C44.1785 87.7653 44.6405 87.3173 45.2285 87C45.8258 86.6733 46.5025 86.51 47.2585 86.51C47.9305 86.51 48.5278 86.6453 49.0505 86.916C49.5825 87.1867 49.9932 87.5787 50.2825 88.092L49.2605 88.75C49.0272 88.3953 48.7378 88.1293 48.3925 87.952C48.0472 87.7747 47.6645 87.686 47.2445 87.686C46.7592 87.686 46.3205 87.7933 45.9285 88.008C45.5458 88.2227 45.2425 88.5307 45.0185 88.932C44.8038 89.324 44.6965 89.7767 44.6965 90.29C44.6965 90.8127 44.8038 91.2747 45.0185 91.676C45.2425 92.068 45.5458 92.3713 45.9285 92.586C46.3205 92.8007 46.7592 92.908 47.2445 92.908C47.6645 92.908 48.0472 92.8193 48.3925 92.642C48.7378 92.4647 49.0272 92.1987 49.2605 91.844L50.2825 92.488C49.9932 93.0013 49.5825 93.398 49.0505 93.678C48.5278 93.9487 47.9305 94.084 47.2585 94.084ZM53.3105 87.826C53.5439 87.3967 53.8892 87.07 54.3465 86.846C54.8039 86.622 55.3592 86.51 56.0125 86.51V87.812C55.9379 87.8027 55.8352 87.798 55.7045 87.798C54.9765 87.798 54.4025 88.0173 53.9825 88.456C53.5719 88.8853 53.3665 89.5013 53.3665 90.304V94H52.0225V86.58H53.3105V87.826ZM57.669 86.58H59.013V94H57.669V86.58ZM58.341 85.152C58.0797 85.152 57.8604 85.068 57.683 84.9C57.515 84.732 57.431 84.5267 57.431 84.284C57.431 84.0413 57.515 83.836 57.683 83.668C57.8604 83.4907 58.0797 83.402 58.341 83.402C58.6024 83.402 58.817 83.486 58.985 83.654C59.1624 83.8127 59.251 84.0133 59.251 84.256C59.251 84.508 59.1624 84.7227 58.985 84.9C58.817 85.068 58.6024 85.152 58.341 85.152ZM65.5132 86.51C66.2318 86.51 66.8758 86.6687 67.4452 86.986C68.0145 87.3033 68.4578 87.7467 68.7752 88.316C69.1018 88.8853 69.2652 89.5433 69.2652 90.29C69.2652 91.0367 69.1018 91.6993 68.7752 92.278C68.4578 92.8473 68.0145 93.2907 67.4452 93.608C66.8758 93.9253 66.2318 94.084 65.5132 94.084C64.9812 94.084 64.4912 93.9813 64.0432 93.776C63.6045 93.5707 63.2312 93.272 62.9232 92.88V96.716H61.5792V86.58H62.8672V87.756C63.1658 87.3453 63.5438 87.0373 64.0012 86.832C64.4585 86.6173 64.9625 86.51 65.5132 86.51ZM65.4012 92.908C65.8772 92.908 66.3018 92.8007 66.6752 92.586C67.0578 92.362 67.3565 92.054 67.5712 91.662C67.7952 91.2607 67.9072 90.8033 67.9072 90.29C67.9072 89.7767 67.7952 89.324 67.5712 88.932C67.3565 88.5307 67.0578 88.2227 66.6752 88.008C66.3018 87.7933 65.8772 87.686 65.4012 87.686C64.9345 87.686 64.5098 87.798 64.1272 88.022C63.7538 88.2367 63.4552 88.54 63.2312 88.932C63.0165 89.324 62.9092 89.7767 62.9092 90.29C62.9092 90.8033 63.0165 91.2607 63.2312 91.662C63.4458 92.054 63.7445 92.362 64.1272 92.586C64.5098 92.8007 64.9345 92.908 65.4012 92.908ZM75.2941 93.566C75.0981 93.734 74.8555 93.8647 74.5661 93.958C74.2768 94.042 73.9781 94.084 73.6701 94.084C72.9235 94.084 72.3448 93.8833 71.9341 93.482C71.5235 93.0807 71.3181 92.5067 71.3181 91.76V87.686H70.0581V86.58H71.3181V84.956H72.6621V86.58H74.7901V87.686H72.6621V91.704C72.6621 92.1053 72.7601 92.4133 72.9561 92.628C73.1615 92.8427 73.4508 92.95 73.8241 92.95C74.2348 92.95 74.5848 92.8333 74.8741 92.6L75.2941 93.566Z" fill="black"/>
</svg>
