<svg width="70" height="97" viewBox="0 0 70 97" fill="none" xmlns="http://www.w3.org/2000/svg">
<path d="M55.6082 0H69.5086L34.7575 59.9457L0.00634766 0H26.591L34.7575 13.9005L42.7502 0H55.6082Z" fill="#00094A"/>
<path d="M0.00634766 0L34.7575 59.9457L69.5086 0H55.6082L34.7575 35.9674L13.733 0H0.00634766Z" fill="#00094A"/>
<path d="M13.733 0L34.7575 36.1412L55.6082 0H42.7502L34.7575 13.9005L26.591 0H13.733Z" fill="#35495E"/>
<path d="M23.2706 84.1458L18.9726 93.9458H17.5866L13.2746 84.1458H14.7866L18.3146 92.1958L21.8706 84.1458H23.2706ZM30.9942 86.5258V93.9458H29.7202V92.8258C29.4495 93.2085 29.0902 93.5071 28.6422 93.7218C28.2035 93.9271 27.7229 94.0298 27.2002 94.0298C26.2109 94.0298 25.4315 93.7591 24.8622 93.2178C24.2929 92.6671 24.0082 91.8598 24.0082 90.7958V86.5258H25.3522V90.6418C25.3522 91.3605 25.5249 91.9065 25.8702 92.2798C26.2155 92.6438 26.7102 92.8258 27.3542 92.8258C28.0635 92.8258 28.6235 92.6111 29.0342 92.1818C29.4449 91.7525 29.6502 91.1458 29.6502 90.3618V86.5258H30.9942ZM40.2588 90.2778C40.2588 90.3805 40.2495 90.5158 40.2308 90.6838H34.2108C34.2948 91.3371 34.5795 91.8645 35.0648 92.2658C35.5595 92.6578 36.1708 92.8538 36.8988 92.8538C37.7855 92.8538 38.4995 92.5551 39.0408 91.9578L39.7828 92.8258C39.4468 93.2178 39.0268 93.5165 38.5228 93.7218C38.0281 93.9271 37.4728 94.0298 36.8568 94.0298C36.0728 94.0298 35.3775 93.8711 34.7708 93.5538C34.1641 93.2271 33.6928 92.7745 33.3568 92.1958C33.0301 91.6171 32.8668 90.9638 32.8668 90.2358C32.8668 89.5171 33.0255 88.8685 33.3428 88.2898C33.6695 87.7111 34.1128 87.2631 34.6728 86.9458C35.2421 86.6191 35.8815 86.4558 36.5908 86.4558C37.3001 86.4558 37.9301 86.6191 38.4808 86.9458C39.0408 87.2631 39.4748 87.7111 39.7828 88.2898C40.1001 88.8685 40.2588 89.5311 40.2588 90.2778ZM36.5908 87.5898C35.9468 87.5898 35.4055 87.7858 34.9668 88.1778C34.5375 88.5698 34.2855 89.0831 34.2108 89.7178H38.9708C38.8961 89.0925 38.6395 88.5838 38.2008 88.1918C37.7715 87.7905 37.2348 87.5898 36.5908 87.5898ZM43.5811 94.0578C42.9931 94.0578 42.4471 93.9365 41.9431 93.6938C41.4391 93.4418 41.0331 93.0918 40.7251 92.6438L41.5371 91.6918C42.0784 92.4665 42.7597 92.8538 43.5811 92.8538C44.1317 92.8538 44.5471 92.6858 44.8271 92.3498C45.1164 92.0138 45.2611 91.5191 45.2611 90.8658V85.3638H41.7191V84.1458H46.6471V90.7958C46.6471 91.8785 46.3857 92.6951 45.8631 93.2458C45.3497 93.7871 44.5891 94.0578 43.5811 94.0578ZM52.3548 94.0578C51.6175 94.0578 50.9035 93.9458 50.2128 93.7218C49.5315 93.4885 48.9948 93.1898 48.6028 92.8258L49.1208 91.7338C49.4941 92.0698 49.9701 92.3451 50.5488 92.5598C51.1368 92.7651 51.7388 92.8678 52.3548 92.8678C53.1668 92.8678 53.7735 92.7325 54.1748 92.4618C54.5761 92.1818 54.7768 91.8131 54.7768 91.3558C54.7768 91.0198 54.6648 90.7491 54.4408 90.5438C54.2261 90.3291 53.9555 90.1658 53.6288 90.0538C53.3115 89.9418 52.8588 89.8158 52.2708 89.6758C51.5335 89.4985 50.9361 89.3211 50.4788 89.1438C50.0308 88.9665 49.6435 88.6958 49.3168 88.3318C48.9995 87.9585 48.8408 87.4591 48.8408 86.8338C48.8408 86.3111 48.9761 85.8398 49.2468 85.4198C49.5268 84.9998 49.9468 84.6638 50.5068 84.4118C51.0668 84.1598 51.7621 84.0338 52.5928 84.0338C53.1715 84.0338 53.7408 84.1085 54.3008 84.2578C54.8608 84.4071 55.3415 84.6218 55.7428 84.9018L55.2808 86.0218C54.8701 85.7605 54.4315 85.5645 53.9648 85.4338C53.4981 85.2938 53.0408 85.2238 52.5928 85.2238C51.7995 85.2238 51.2021 85.3685 50.8008 85.6578C50.4088 85.9471 50.2128 86.3205 50.2128 86.7778C50.2128 87.1138 50.3248 87.3891 50.5488 87.6038C50.7728 87.8091 51.0481 87.9725 51.3748 88.0938C51.7108 88.2058 52.1635 88.3271 52.7328 88.4578C53.4701 88.6351 54.0628 88.8125 54.5108 88.9898C54.9588 89.1671 55.3415 89.4378 55.6588 89.8018C55.9855 90.1658 56.1488 90.6558 56.1488 91.2718C56.1488 91.7851 56.0088 92.2565 55.7288 92.6858C55.4488 93.1058 55.0241 93.4418 54.4548 93.6938C53.8855 93.9365 53.1855 94.0578 52.3548 94.0578Z" fill="black"/>
</svg>
