<svg width="58" height="97" viewBox="0 0 58 97" fill="none" xmlns="http://www.w3.org/2000/svg">
<path d="M23.7277 31.6205H33.933L28.8304 19.3527L23.7277 31.6205ZM28.8304 0L1 9.96429L5.25893 46.8884L28.8304 60L52.4018 46.8884L56.6607 9.96429L28.8304 0ZM46.2679 45.7768H39.7589L36.25 37.0179H21.4375L17.9286 45.7768H11.4062L28.8304 6.62946L46.2679 45.7768Z" fill="#00094A"/>
<path d="M8.72181 91.55H3.51381L2.43581 94H0.993812L5.43181 84.2H6.81781L11.2698 94H9.79981L8.72181 91.55ZM8.23181 90.43L6.11781 85.628L4.00381 90.43H8.23181ZM16.4977 86.51C17.4404 86.51 18.1871 86.7853 18.7377 87.336C19.2977 87.8773 19.5777 88.6753 19.5777 89.73V94H18.2337V89.884C18.2337 89.1653 18.0611 88.624 17.7157 88.26C17.3704 87.896 16.8757 87.714 16.2317 87.714C15.5037 87.714 14.9297 87.9287 14.5097 88.358C14.0897 88.778 13.8797 89.3847 13.8797 90.178V94H12.5357V86.58H13.8237V87.7C14.0944 87.3173 14.4584 87.0233 14.9157 86.818C15.3824 86.6127 15.9097 86.51 16.4977 86.51ZM29.204 86.58V92.992C29.204 94.2893 28.882 95.246 28.238 95.862C27.594 96.4873 26.6327 96.8 25.354 96.8C24.654 96.8 23.9867 96.702 23.352 96.506C22.7174 96.3193 22.204 96.0487 21.812 95.694L22.456 94.658C22.8014 94.9567 23.226 95.19 23.73 95.358C24.2434 95.5353 24.7707 95.624 25.312 95.624C26.18 95.624 26.8194 95.4187 27.23 95.008C27.65 94.5973 27.86 93.972 27.86 93.132V92.544C27.5427 92.9267 27.1507 93.216 26.684 93.412C26.2267 93.5987 25.7274 93.692 25.186 93.692C24.4767 93.692 23.8327 93.5427 23.254 93.244C22.6847 92.936 22.2367 92.5113 21.91 91.97C21.5834 91.4193 21.42 90.794 21.42 90.094C21.42 89.394 21.5834 88.7733 21.91 88.232C22.2367 87.6813 22.6847 87.2567 23.254 86.958C23.8327 86.6593 24.4767 86.51 25.186 86.51C25.746 86.51 26.264 86.6127 26.74 86.818C27.2254 87.0233 27.622 87.3267 27.93 87.728V86.58H29.204ZM25.34 92.516C25.8254 92.516 26.2594 92.4133 26.642 92.208C27.034 92.0027 27.3374 91.718 27.552 91.354C27.776 90.9807 27.888 90.5607 27.888 90.094C27.888 89.3753 27.65 88.7967 27.174 88.358C26.698 87.91 26.0867 87.686 25.34 87.686C24.584 87.686 23.968 87.91 23.492 88.358C23.016 88.7967 22.778 89.3753 22.778 90.094C22.778 90.5607 22.8854 90.9807 23.1 91.354C23.324 91.718 23.6274 92.0027 24.01 92.208C24.402 92.4133 24.8454 92.516 25.34 92.516ZM38.688 86.58V94H37.414V92.88C37.1434 93.2627 36.784 93.5613 36.336 93.776C35.8974 93.9813 35.4167 94.084 34.894 94.084C33.9047 94.084 33.1254 93.8133 32.556 93.272C31.9867 92.7213 31.702 91.914 31.702 90.85V86.58H33.046V90.696C33.046 91.4147 33.2187 91.9607 33.564 92.334C33.9094 92.698 34.404 92.88 35.048 92.88C35.7574 92.88 36.3174 92.6653 36.728 92.236C37.1387 91.8067 37.344 91.2 37.344 90.416V86.58H38.688ZM41.2467 83.612H42.5907V94H41.2467V83.612ZM47.8588 86.51C48.8855 86.51 49.6695 86.762 50.2108 87.266C50.7615 87.77 51.0368 88.5213 51.0368 89.52V94H49.7628V93.02C49.5388 93.3653 49.2168 93.6313 48.7968 93.818C48.3861 93.9953 47.8961 94.084 47.3268 94.084C46.4961 94.084 45.8288 93.8833 45.3248 93.482C44.8301 93.0807 44.5828 92.5533 44.5828 91.9C44.5828 91.2467 44.8208 90.724 45.2968 90.332C45.7728 89.9307 46.5288 89.73 47.5648 89.73H49.6928V89.464C49.6928 88.8853 49.5248 88.442 49.1888 88.134C48.8528 87.826 48.3581 87.672 47.7048 87.672C47.2661 87.672 46.8368 87.7467 46.4168 87.896C45.9968 88.036 45.6421 88.2273 45.3528 88.47L44.7928 87.462C45.1755 87.154 45.6328 86.9207 46.1648 86.762C46.6968 86.594 47.2615 86.51 47.8588 86.51ZM47.5508 93.048C48.0641 93.048 48.5075 92.936 48.8808 92.712C49.2541 92.4787 49.5248 92.152 49.6928 91.732V90.696H47.6208C46.4821 90.696 45.9128 91.0787 45.9128 91.844C45.9128 92.2173 46.0575 92.5113 46.3468 92.726C46.6361 92.9407 47.0375 93.048 47.5508 93.048ZM54.812 87.826C55.0453 87.3967 55.3907 87.07 55.848 86.846C56.3053 86.622 56.8607 86.51 57.514 86.51V87.812C57.4393 87.8027 57.3367 87.798 57.206 87.798C56.478 87.798 55.904 88.0173 55.484 88.456C55.0733 88.8853 54.868 89.5013 54.868 90.304V94H53.524V86.58H54.812V87.826Z" fill="black"/>
</svg>
