<svg width="61" height="97" viewBox="0 0 61 97" fill="none" xmlns="http://www.w3.org/2000/svg">
<path d="M59.8683 27.3272L33.6713 1.13152C32.1635 -0.377175 29.7166 -0.377175 28.2069 1.13152L22.767 6.57147L29.6678 13.4723C31.2714 12.9304 33.1104 13.2939 34.3887 14.5722C35.6731 15.8588 36.034 17.7134 35.479 19.3222L42.1295 25.9729C43.7386 25.4186 45.5951 25.7772 46.8802 27.0644C48.6762 28.8598 48.6762 31.7696 46.8802 33.5661C45.0837 35.3629 42.1738 35.3629 40.3764 33.5661C39.0254 32.2137 38.6917 30.2297 39.3756 28.5654L33.1734 22.3632L33.1727 38.6847C33.6223 38.907 34.033 39.2007 34.3887 39.5543C36.1847 41.3496 36.1847 44.2597 34.3887 46.0576C32.5922 47.8534 29.681 47.8534 27.887 46.0576C26.091 44.2597 26.091 41.3498 27.887 39.5545C28.3174 39.1239 28.8289 38.7828 29.392 38.5511V22.0775C28.8281 21.8474 28.3163 21.5061 27.887 21.0742C26.5262 19.7152 26.199 17.7186 26.8963 16.0477L20.0937 9.24433L2.13083 27.206C0.621429 28.7161 0.621429 31.1633 2.13083 32.6722L28.3283 58.8683C29.8366 60.3772 32.283 60.3772 33.7931 58.8683L59.8681 32.7938C61.377 31.2844 61.377 28.8359 59.8681 27.3272" fill="#00094A"/>
<path d="M29.498 89.044H30.842V92.866C30.3567 93.2673 29.792 93.5753 29.148 93.79C28.504 94.0047 27.832 94.112 27.132 94.112C26.1427 94.112 25.2514 93.8973 24.458 93.468C23.6647 93.0293 23.0394 92.432 22.582 91.676C22.134 90.9107 21.91 90.052 21.91 89.1C21.91 88.148 22.134 87.2893 22.582 86.524C23.0394 85.7587 23.6647 85.1613 24.458 84.732C25.2607 84.3027 26.1614 84.088 27.16 84.088C27.944 84.088 28.6534 84.2187 29.288 84.48C29.932 84.732 30.478 85.1053 30.926 85.6L30.058 86.468C29.274 85.712 28.3267 85.334 27.216 85.334C26.4694 85.334 25.7974 85.4973 25.2 85.824C24.612 86.1413 24.15 86.5893 23.814 87.168C23.478 87.7373 23.31 88.3813 23.31 89.1C23.31 89.8093 23.478 90.4533 23.814 91.032C24.15 91.6013 24.612 92.0493 25.2 92.376C25.7974 92.7027 26.4647 92.866 27.202 92.866C28.0794 92.866 28.8447 92.656 29.498 92.236V89.044ZM33.3265 86.58H34.6705V94H33.3265V86.58ZM33.9985 85.152C33.7372 85.152 33.5178 85.068 33.3405 84.9C33.1725 84.732 33.0885 84.5267 33.0885 84.284C33.0885 84.0413 33.1725 83.836 33.3405 83.668C33.5178 83.4907 33.7372 83.402 33.9985 83.402C34.2598 83.402 34.4745 83.486 34.6425 83.654C34.8198 83.8127 34.9085 84.0133 34.9085 84.256C34.9085 84.508 34.8198 84.7227 34.6425 84.9C34.4745 85.068 34.2598 85.152 33.9985 85.152ZM41.4086 93.566C41.2126 93.734 40.97 93.8647 40.6806 93.958C40.3913 94.042 40.0926 94.084 39.7846 94.084C39.038 94.084 38.4593 93.8833 38.0486 93.482C37.638 93.0807 37.4326 92.5067 37.4326 91.76V87.686H36.1726V86.58H37.4326V84.956H38.7766V86.58H40.9046V87.686H38.7766V91.704C38.7766 92.1053 38.8746 92.4133 39.0706 92.628C39.276 92.8427 39.5653 92.95 39.9386 92.95C40.3493 92.95 40.6993 92.8333 40.9886 92.6L41.4086 93.566Z" fill="black"/>
</svg>
