<svg width="81" height="97" viewBox="0 0 81 97" fill="none" xmlns="http://www.w3.org/2000/svg">
<path d="M68.8916 34.4918C66.1006 34.5062 63.6746 35.1784 61.6435 36.1722C60.898 34.6961 60.1527 33.3811 60.0214 32.4165C59.8751 31.2914 59.6999 30.6045 59.8751 29.26C60.0506 27.9156 60.8397 26.0011 60.825 25.855C60.8105 25.709 60.6495 25.022 59.0421 25.0076C57.4347 24.9929 56.0464 25.3144 55.8856 25.7381C55.7248 26.1618 55.418 27.1265 55.2134 28.1199C54.9357 29.5816 51.9986 34.7983 50.3182 37.531C49.7773 36.4646 49.3097 35.5291 49.2073 34.7839C49.0612 33.6588 48.8857 32.9718 49.0612 31.6274C49.2367 30.2829 50.0258 28.3687 50.0111 28.2224C49.9964 28.0763 49.8356 27.3894 48.2282 27.375C46.6205 27.3602 45.2322 27.6818 45.0717 28.1055C44.911 28.5295 44.7355 29.523 44.3995 30.4876C44.0633 31.4522 40.1615 40.162 39.1386 42.4121C38.7253 43.3229 38.2916 44.2243 37.8381 45.1157C37.8381 45.1157 37.8233 45.1596 37.7795 45.2326C37.637 45.5121 37.4909 45.7898 37.3413 46.0656V46.08C37.122 46.4749 36.8882 46.84 36.7713 46.84C36.6835 46.84 36.5228 45.7879 36.8004 44.3557C37.3849 41.3309 38.7732 36.6253 38.7588 36.4646C38.7588 36.3768 39.0217 35.5586 37.8528 35.1345C36.7127 34.7108 36.3037 35.4122 36.2012 35.4122C36.0991 35.4122 36.0257 35.6607 36.0257 35.6607C36.0257 35.6607 37.2975 30.3707 33.6001 30.3707C31.2913 30.3707 28.1054 32.8988 26.5272 35.1784C24.733 36.1548 22.9404 37.1339 21.1494 38.1158C20.2875 38.5981 19.3959 39.0804 18.5629 39.5333C18.5043 39.475 18.4461 39.4017 18.3875 39.3434C13.9157 34.5648 5.64466 31.1889 5.99535 24.7738C6.12697 22.4356 6.93051 16.2979 21.8802 8.84511C34.1845 2.78037 43.9758 4.46078 45.6709 8.18731C48.0966 13.5068 40.4248 23.3855 27.7108 24.8174C22.8592 25.3583 20.3164 23.4877 19.6736 22.7863C19.0014 22.0555 18.8989 22.0116 18.6504 22.158C18.2414 22.3773 18.5043 23.0348 18.6504 23.4147C19.0305 24.4081 20.594 26.1618 23.2391 27.0243C25.5773 27.784 31.2619 28.208 38.1449 25.5482C45.8461 22.5669 51.867 14.2812 50.0988 7.3399C48.3304 0.296124 36.6396 -2.02736 25.5773 1.90351C19.0014 4.24203 11.8699 7.92437 6.74059 12.7177C0.646706 18.4167 -0.317911 23.3708 0.0766477 25.4461C1.49443 32.8111 11.6508 37.6044 15.7133 41.1554C15.5086 41.2723 15.3184 41.3748 15.158 41.4625C13.1266 42.4707 5.38142 46.5185 3.45249 50.8003C1.26064 55.6519 3.80349 59.1302 5.48389 59.5975C10.7009 61.0444 16.064 58.4433 18.9428 54.1467C21.8216 49.8504 21.4709 44.268 20.1412 41.7107C20.1265 41.6816 20.112 41.6521 20.0826 41.623C20.6088 41.3162 21.1494 40.9946 21.6755 40.6878C22.6426 40.1161 23.622 39.5655 24.613 39.0363C24.1159 40.3954 23.7505 42.0175 23.5753 44.3557C23.3559 47.1032 24.481 50.6687 25.9571 52.0714C26.6149 52.6857 27.3893 52.7001 27.8863 52.7001C29.6106 52.7001 30.3853 51.2679 31.2474 49.5728C32.2995 47.4978 33.2494 45.0866 33.2494 45.0866C33.2494 45.0866 32.0657 51.6042 35.2808 51.6042C36.4497 51.6042 37.6334 50.0842 38.1596 49.3098V49.3242C38.1596 49.3242 38.1887 49.2804 38.2473 49.1782C38.3642 48.9883 38.4373 48.8711 38.4373 48.8711V48.8422C38.9048 48.0237 39.9572 46.1678 41.5207 43.0843C43.5374 39.1096 45.481 34.1411 45.481 34.1411C45.481 34.1411 45.6565 35.3539 46.2554 37.3706C46.6064 38.5543 47.3366 39.8548 47.9214 41.1115C47.4538 41.7693 47.1614 42.1344 47.1614 42.1344L47.1762 42.1492C46.796 42.6459 46.387 43.1865 45.9339 43.713C44.3409 45.6124 42.4415 47.7902 42.1782 48.4182C41.8711 49.1635 41.9444 49.7044 42.5292 50.1428C42.9529 50.4644 43.7126 50.5079 44.4873 50.4644C45.9195 50.3619 46.9276 50.0112 47.4244 49.7921C48.1991 49.5145 49.1051 49.0905 49.9525 48.4621C51.5163 47.3076 52.4659 45.6563 52.3785 43.4792C52.3346 42.2808 51.94 41.0824 51.4577 39.957C51.6041 39.7527 51.7354 39.548 51.8817 39.3434C54.3512 35.7337 56.2658 31.7734 56.2658 31.7734C56.2658 31.7734 56.4413 32.9862 57.0401 35.0032C57.3325 36.0261 57.9317 37.1368 58.4576 38.218C56.1341 40.1033 54.7019 42.2952 54.1905 43.7274C53.2701 46.3871 53.9858 47.5852 55.345 47.8629C55.9586 47.9945 56.8355 47.7021 57.4786 47.4245C58.2968 47.1615 59.2615 46.7087 60.1822 46.0361C61.746 44.8819 63.2509 43.2742 63.1632 41.0971C63.1193 40.1033 62.8564 39.124 62.4909 38.1741C64.4637 37.3562 67.0066 36.903 70.2505 37.2828C77.2068 38.1011 78.5804 42.4412 78.3172 44.2683C78.0543 46.0948 76.5929 47.0885 76.1109 47.3953C75.6283 47.7024 75.4678 47.8046 75.5117 48.0237C75.57 48.3452 75.8038 48.3308 76.2131 48.2722C76.7831 48.17 79.8666 46.7961 79.9979 43.435C80.2173 39.1387 76.1253 34.4479 68.8916 34.4918V34.4918ZM15.231 52.5832C12.9219 55.0966 9.70715 56.0465 8.31883 55.2429C6.82834 54.3805 7.41282 50.6687 10.2477 48.0093C11.972 46.3871 14.1933 44.8816 15.6694 43.9612C16.0054 43.7565 16.5024 43.4645 17.1016 43.0991C17.2038 43.0404 17.2624 43.0113 17.2624 43.0113L17.6131 42.7919C18.6504 46.5915 17.6569 49.9382 15.231 52.5832V52.5832ZM32.0366 41.1554C31.2327 43.1138 29.5523 48.1262 28.5294 47.8485C27.6525 47.6147 27.1116 43.8151 28.3539 40.0595C28.9823 38.1741 30.312 35.9237 31.0867 35.0471C32.3434 33.644 33.7317 33.1762 34.0677 33.7465C34.4917 34.4918 32.5333 39.9278 32.0366 41.1554V41.1554ZM45.9047 47.7899C45.5685 47.9654 45.2472 48.0823 45.1009 47.9945C44.9987 47.9359 45.2472 47.7021 45.2472 47.7021C45.2472 47.7021 46.9863 45.8318 47.6729 44.9841C48.0678 44.4874 48.535 43.9029 49.0321 43.2451V43.435C49.0321 45.671 46.869 47.1763 45.9044 47.7899H45.9047ZM56.6017 45.3495C56.3532 45.174 56.3971 44.5895 57.2301 42.7628C57.5516 42.0467 58.3113 40.8486 59.6121 39.6941C59.7582 40.1616 59.8607 40.6148 59.8459 41.0385C59.8312 43.859 57.8148 44.9111 56.6017 45.3495Z" fill="#00094A"/>
<path d="M28.7808 94.112C28.0435 94.112 27.3295 94 26.6388 93.776C25.9575 93.5427 25.4208 93.244 25.0288 92.88L25.5468 91.788C25.9202 92.124 26.3962 92.3993 26.9748 92.614C27.5628 92.8193 28.1648 92.922 28.7808 92.922C29.5928 92.922 30.1995 92.7867 30.6008 92.516C31.0022 92.236 31.2028 91.8673 31.2028 91.41C31.2028 91.074 31.0908 90.8033 30.8668 90.598C30.6522 90.3833 30.3815 90.22 30.0548 90.108C29.7375 89.996 29.2848 89.87 28.6968 89.73C27.9595 89.5527 27.3622 89.3753 26.9048 89.198C26.4568 89.0207 26.0695 88.75 25.7428 88.386C25.4255 88.0127 25.2668 87.5133 25.2668 86.888C25.2668 86.3653 25.4022 85.894 25.6728 85.474C25.9528 85.054 26.3728 84.718 26.9328 84.466C27.4928 84.214 28.1882 84.088 29.0188 84.088C29.5975 84.088 30.1668 84.1627 30.7268 84.312C31.2868 84.4613 31.7675 84.676 32.1688 84.956L31.7068 86.076C31.2962 85.8147 30.8575 85.6187 30.3908 85.488C29.9242 85.348 29.4668 85.278 29.0188 85.278C28.2255 85.278 27.6282 85.4227 27.2268 85.712C26.8348 86.0013 26.6388 86.3747 26.6388 86.832C26.6388 87.168 26.7508 87.4433 26.9748 87.658C27.1988 87.8633 27.4742 88.0267 27.8008 88.148C28.1368 88.26 28.5895 88.3813 29.1588 88.512C29.8962 88.6893 30.4888 88.8667 30.9368 89.044C31.3848 89.2213 31.7675 89.492 32.0848 89.856C32.4115 90.22 32.5748 90.71 32.5748 91.326C32.5748 91.8393 32.4348 92.3107 32.1548 92.74C31.8748 93.16 31.4502 93.496 30.8808 93.748C30.3115 93.9907 29.6115 94.112 28.7808 94.112ZM37.1261 86.51C38.1528 86.51 38.9368 86.762 39.4781 87.266C40.0288 87.77 40.3041 88.5213 40.3041 89.52V94H39.0301V93.02C38.8061 93.3653 38.4841 93.6313 38.0641 93.818C37.6535 93.9953 37.1635 94.084 36.5941 94.084C35.7635 94.084 35.0961 93.8833 34.5921 93.482C34.0975 93.0807 33.8501 92.5533 33.8501 91.9C33.8501 91.2467 34.0881 90.724 34.5641 90.332C35.0401 89.9307 35.7961 89.73 36.8321 89.73H38.9601V89.464C38.9601 88.8853 38.7921 88.442 38.4561 88.134C38.1201 87.826 37.6255 87.672 36.9721 87.672C36.5335 87.672 36.1041 87.7467 35.6841 87.896C35.2641 88.036 34.9095 88.2273 34.6201 88.47L34.0601 87.462C34.4428 87.154 34.9001 86.9207 35.4321 86.762C35.9641 86.594 36.5288 86.51 37.1261 86.51ZM36.8181 93.048C37.3315 93.048 37.7748 92.936 38.1481 92.712C38.5215 92.4787 38.7921 92.152 38.9601 91.732V90.696H36.8881C35.7495 90.696 35.1801 91.0787 35.1801 91.844C35.1801 92.2173 35.3248 92.5113 35.6141 92.726C35.9035 92.9407 36.3048 93.048 36.8181 93.048ZM44.9193 94.084C44.3127 94.084 43.7293 94.0047 43.1693 93.846C42.6093 93.678 42.1707 93.468 41.8533 93.216L42.4133 92.152C42.74 92.3853 43.1367 92.572 43.6033 92.712C44.07 92.852 44.5413 92.922 45.0173 92.922C46.1933 92.922 46.7813 92.586 46.7813 91.914C46.7813 91.69 46.702 91.5127 46.5433 91.382C46.3847 91.2513 46.184 91.158 45.9413 91.102C45.708 91.0367 45.372 90.9667 44.9333 90.892C44.336 90.7987 43.846 90.6913 43.4633 90.57C43.09 90.4487 42.768 90.2433 42.4973 89.954C42.2267 89.6647 42.0913 89.2587 42.0913 88.736C42.0913 88.064 42.3713 87.5273 42.9313 87.126C43.4913 86.7153 44.2427 86.51 45.1853 86.51C45.68 86.51 46.1747 86.5707 46.6693 86.692C47.164 86.8133 47.57 86.9767 47.8873 87.182L47.3133 88.246C46.7067 87.854 45.9927 87.658 45.1713 87.658C44.602 87.658 44.168 87.7513 43.8693 87.938C43.5707 88.1247 43.4213 88.372 43.4213 88.68C43.4213 88.9227 43.5053 89.114 43.6733 89.254C43.8413 89.394 44.0467 89.4967 44.2893 89.562C44.5413 89.6273 44.8913 89.702 45.3393 89.786C45.9367 89.8887 46.4173 90.0007 46.7813 90.122C47.1547 90.234 47.472 90.43 47.7333 90.71C47.9947 90.99 48.1253 91.382 48.1253 91.886C48.1253 92.558 47.836 93.0947 47.2573 93.496C46.688 93.888 45.9087 94.084 44.9193 94.084ZM51.933 94.084C51.3263 94.084 50.743 94.0047 50.183 93.846C49.623 93.678 49.1843 93.468 48.867 93.216L49.427 92.152C49.7537 92.3853 50.1503 92.572 50.617 92.712C51.0837 92.852 51.555 92.922 52.031 92.922C53.207 92.922 53.795 92.586 53.795 91.914C53.795 91.69 53.7157 91.5127 53.557 91.382C53.3983 91.2513 53.1977 91.158 52.955 91.102C52.7217 91.0367 52.3857 90.9667 51.947 90.892C51.3497 90.7987 50.8597 90.6913 50.477 90.57C50.1037 90.4487 49.7817 90.2433 49.511 89.954C49.2403 89.6647 49.105 89.2587 49.105 88.736C49.105 88.064 49.385 87.5273 49.945 87.126C50.505 86.7153 51.2563 86.51 52.199 86.51C52.6937 86.51 53.1883 86.5707 53.683 86.692C54.1777 86.8133 54.5837 86.9767 54.901 87.182L54.327 88.246C53.7203 87.854 53.0063 87.658 52.185 87.658C51.6157 87.658 51.1817 87.7513 50.883 87.938C50.5843 88.1247 50.435 88.372 50.435 88.68C50.435 88.9227 50.519 89.114 50.687 89.254C50.855 89.394 51.0603 89.4967 51.303 89.562C51.555 89.6273 51.905 89.702 52.353 89.786C52.9503 89.8887 53.431 90.0007 53.795 90.122C54.1683 90.234 54.4857 90.43 54.747 90.71C55.0083 90.99 55.139 91.382 55.139 91.886C55.139 92.558 54.8497 93.0947 54.271 93.496C53.7017 93.888 52.9223 94.084 51.933 94.084Z" fill="black"/>
</svg>
