<svg width="65" height="97" viewBox="0 0 65 97" fill="none" xmlns="http://www.w3.org/2000/svg">
<path d="M32.4982 36.0113C35.699 36.0113 38.2938 33.3193 38.2938 29.9984C38.2938 26.6776 35.699 23.9856 32.4982 23.9856C29.2973 23.9856 26.7025 26.6776 26.7025 29.9984C26.7025 33.3193 29.2973 36.0113 32.4982 36.0113Z" fill="#00094A"/>
<path d="M16.2732 41.9563L14.9907 41.6161C5.46446 39.12 0 34.8756 0 29.9878C0 25.0967 5.4677 20.8557 14.9907 18.3596L16.2732 18.0228L16.6336 19.3399C17.5965 22.7882 18.8301 26.1489 20.3221 29.3882L20.598 29.9878L20.3221 30.5874C18.8285 33.8314 17.5915 37.1932 16.6336 40.6425L16.2732 41.9563V41.9563ZM14.3998 21.425C7.16256 23.5405 2.71762 26.7675 2.71762 29.9878C2.71762 33.2014 7.15932 36.4319 14.3998 38.5439C15.2862 35.62 16.3577 32.7602 17.598 29.9878C16.3487 27.2109 15.2802 24.3502 14.3998 21.425V21.425ZM48.7256 41.9563L48.3684 40.6358C47.403 37.1868 46.1684 33.8251 44.6767 30.5841L44.4007 29.9878L44.6767 29.3849C46.1703 26.1477 47.4008 22.7825 48.3684 19.3331L48.7256 18.0194L50.0081 18.3563C59.5376 20.8524 64.9988 25.0934 64.9988 29.9878C64.9988 34.879 59.5343 39.12 50.0081 41.6161L48.7256 41.9563V41.9563ZM47.3943 29.9878C48.6931 32.905 49.7743 35.775 50.599 38.5439C57.8395 36.4319 62.2844 33.2014 62.2844 29.9878C62.2844 26.7675 57.8427 23.5438 50.599 21.425C49.7135 24.3493 48.643 27.2098 47.3943 29.9878V29.9878Z" fill="#00094A"/>
<path d="M14.3807 21.4109L14.0236 20.0972C11.3417 10.3014 12.1534 3.28477 16.2541 0.83921C20.264 -1.5693 26.7155 1.27712 33.4722 8.46896L34.3943 9.45257L33.4722 10.4328C31.0724 13.0222 28.879 15.8092 26.9136 18.7666L26.5467 19.3123L25.9103 19.3662C22.4543 19.6478 19.0262 20.2212 15.66 21.0808L14.3807 21.4109V21.4109ZM19.5172 2.78623C18.7899 2.78623 18.1471 2.95129 17.6048 3.27467C14.9164 4.88146 14.4424 10.4766 16.2931 18.0289C19.1861 17.3653 22.105 16.8903 25.0466 16.6242C26.7497 14.1182 28.6075 11.7294 30.6085 9.47279C26.3778 5.20484 22.3842 2.78623 19.5172 2.78623V2.78623ZM45.4823 59.9976C41.6251 59.9976 36.6704 56.9793 31.5274 51.5021L30.6085 50.5219L31.5274 49.545C33.9276 46.9515 36.122 44.1611 38.0893 41.2011L38.4529 40.6621L39.0828 40.5981C42.54 40.3215 45.9694 39.7503 49.3364 38.8903L50.6189 38.5534L50.9793 39.8705C53.6482 49.6595 52.8397 56.6863 48.7454 59.1318C47.7513 59.7165 46.6249 60.0153 45.4823 59.9976V59.9976ZM34.3943 50.4983C38.6217 54.7662 42.6186 57.1882 45.4823 57.1882C46.2129 57.1882 46.8558 57.0198 47.3947 56.6998C50.0864 55.0896 50.5637 49.4843 48.7065 41.9321C45.8168 42.599 42.8946 43.0774 39.9465 43.3435C38.2507 45.8535 36.3959 48.2437 34.3943 50.4983V50.4983Z" fill="#00094A"/>
<path d="M50.6196 21.4126L49.3371 21.0791C45.9703 20.2169 42.5409 19.6434 39.0835 19.3646L38.4536 19.3073L38.09 18.7616C36.1255 15.8026 33.9309 13.0154 31.5281 10.4278L30.6092 9.44757L31.5281 8.47069C38.2816 1.28222 44.7298 -1.5642 48.7462 0.84094C52.8437 3.28987 53.6587 10.3065 50.98 20.0989L50.6196 21.4126ZM39.9472 16.6259C43.0447 16.9123 45.9799 17.394 48.7072 18.0306C50.5612 10.4783 50.0871 4.88319 47.3955 3.27303C44.7201 1.66623 39.6842 4.12527 34.3951 9.47452C36.3951 11.7314 38.2523 14.1164 39.9472 16.6259ZM19.518 59.9993C18.3755 60.0162 17.2493 59.7174 16.2549 59.1336C12.1541 56.688 11.3424 49.6646 14.0211 39.8723L14.3717 38.5552L15.6542 38.892C18.7842 39.7106 22.2324 40.2866 25.9078 40.5999L26.5377 40.6639L26.9046 41.2028C28.8657 44.1604 31.0606 46.9529 33.4632 49.5467L34.3853 50.5236L33.4632 51.5038C28.3235 56.9845 23.3688 59.9993 19.518 59.9993V59.9993ZM16.2939 41.9372C14.4431 49.4894 14.9172 55.0947 17.6056 56.7049C20.2842 58.2881 25.3039 55.8459 30.6092 50.5C28.609 48.2427 26.7512 45.854 25.0474 43.3486C22.1028 43.0784 19.1786 42.6069 16.2939 41.9372V41.9372Z" fill="#00094A"/>
<path d="M32.4992 43.7034C30.2686 43.7034 27.9796 43.6057 25.6808 43.407L25.0444 43.3497L24.6775 42.804C23.3812 40.8701 22.1616 38.8821 21.0216 36.845C19.89 34.8025 18.8382 32.7134 17.8689 30.5829L17.5961 29.9867L17.8689 29.3837C18.8397 27.2548 19.8884 25.1663 21.0216 23.125C22.1482 21.1173 23.3788 19.1097 24.6775 17.1626L25.0444 16.6237L25.6808 16.563C30.2163 16.1689 34.7756 16.1689 39.3111 16.563L39.941 16.6271L40.3079 17.166C42.9047 21.0356 45.1854 25.1235 47.1263 29.3871L47.3957 29.9901L47.1263 30.5863C45.1908 34.8528 42.9098 38.9411 40.3079 42.8074L39.941 43.3531L39.3111 43.4103C37.0188 43.6023 34.7265 43.7034 32.4992 43.7034V43.7034ZM26.5445 40.6582C30.5543 40.9715 34.4441 40.9715 38.4507 40.6582C40.6874 37.2601 42.6757 33.6929 44.3989 29.9867C42.6818 26.2771 40.6932 22.7095 38.4507 19.3151C34.4878 18.9985 30.5073 18.9985 26.5445 19.3151C24.3 22.7083 22.3114 26.276 20.5962 29.9867C22.3231 33.6909 24.3113 37.2578 26.5445 40.6582V40.6582Z" fill="#00094A"/>
<path d="M20.1031 94L17.9891 90.99C17.7277 91.0087 17.5224 91.018 17.3731 91.018H14.9511V94H13.5511V84.2H17.3731C18.6424 84.2 19.6411 84.5033 20.3691 85.11C21.0971 85.7167 21.4611 86.552 21.4611 87.616C21.4611 88.372 21.2744 89.016 20.9011 89.548C20.5277 90.08 19.9957 90.4673 19.3051 90.71L21.6291 94H20.1031ZM17.3311 89.828C18.2177 89.828 18.8944 89.6367 19.3611 89.254C19.8277 88.8713 20.0611 88.3253 20.0611 87.616C20.0611 86.9067 19.8277 86.3653 19.3611 85.992C18.8944 85.6093 18.2177 85.418 17.3311 85.418H14.9511V89.828H17.3311ZM30.2329 90.332C30.2329 90.4347 30.2236 90.57 30.2049 90.738H24.1849C24.2689 91.3913 24.5536 91.9187 25.0389 92.32C25.5336 92.712 26.1449 92.908 26.8729 92.908C27.7596 92.908 28.4736 92.6093 29.0149 92.012L29.7569 92.88C29.4209 93.272 29.0009 93.5707 28.4969 93.776C28.0023 93.9813 27.4469 94.084 26.8309 94.084C26.0469 94.084 25.3516 93.9253 24.7449 93.608C24.1383 93.2813 23.6669 92.8287 23.3309 92.25C23.0043 91.6713 22.8409 91.018 22.8409 90.29C22.8409 89.5713 22.9996 88.9227 23.3169 88.344C23.6436 87.7653 24.0869 87.3173 24.6469 87C25.2163 86.6733 25.8556 86.51 26.5649 86.51C27.2743 86.51 27.9043 86.6733 28.4549 87C29.0149 87.3173 29.4489 87.7653 29.7569 88.344C30.0743 88.9227 30.2329 89.5853 30.2329 90.332ZM26.5649 87.644C25.9209 87.644 25.3796 87.84 24.9409 88.232C24.5116 88.624 24.2596 89.1373 24.1849 89.772H28.9449C28.8703 89.1467 28.6136 88.638 28.1749 88.246C27.7456 87.8447 27.2089 87.644 26.5649 87.644ZM34.5961 86.51C35.6228 86.51 36.4068 86.762 36.9481 87.266C37.4988 87.77 37.7741 88.5213 37.7741 89.52V94H36.5001V93.02C36.2761 93.3653 35.9541 93.6313 35.5341 93.818C35.1235 93.9953 34.6335 94.084 34.0641 94.084C33.2335 94.084 32.5661 93.8833 32.0621 93.482C31.5675 93.0807 31.3201 92.5533 31.3201 91.9C31.3201 91.2467 31.5581 90.724 32.0341 90.332C32.5101 89.9307 33.2661 89.73 34.3021 89.73H36.4301V89.464C36.4301 88.8853 36.2621 88.442 35.9261 88.134C35.5901 87.826 35.0955 87.672 34.4421 87.672C34.0035 87.672 33.5741 87.7467 33.1541 87.896C32.7341 88.036 32.3795 88.2273 32.0901 88.47L31.5301 87.462C31.9128 87.154 32.3701 86.9207 32.9021 86.762C33.4341 86.594 33.9988 86.51 34.5961 86.51ZM34.2881 93.048C34.8015 93.048 35.2448 92.936 35.6181 92.712C35.9915 92.4787 36.2621 92.152 36.4301 91.732V90.696H34.3581C33.2195 90.696 32.6501 91.0787 32.6501 91.844C32.6501 92.2173 32.7948 92.5113 33.0841 92.726C33.3735 92.9407 33.7748 93.048 34.2881 93.048ZM43.5363 94.084C42.7803 94.084 42.1037 93.9207 41.5063 93.594C40.9183 93.2673 40.4563 92.8193 40.1203 92.25C39.7843 91.6713 39.6163 91.018 39.6163 90.29C39.6163 89.562 39.7843 88.9133 40.1203 88.344C40.4563 87.7653 40.9183 87.3173 41.5063 87C42.1037 86.6733 42.7803 86.51 43.5363 86.51C44.2083 86.51 44.8057 86.6453 45.3283 86.916C45.8603 87.1867 46.271 87.5787 46.5603 88.092L45.5383 88.75C45.305 88.3953 45.0157 88.1293 44.6703 87.952C44.325 87.7747 43.9423 87.686 43.5223 87.686C43.037 87.686 42.5983 87.7933 42.2063 88.008C41.8237 88.2227 41.5203 88.5307 41.2963 88.932C41.0817 89.324 40.9743 89.7767 40.9743 90.29C40.9743 90.8127 41.0817 91.2747 41.2963 91.676C41.5203 92.068 41.8237 92.3713 42.2063 92.586C42.5983 92.8007 43.037 92.908 43.5223 92.908C43.9423 92.908 44.325 92.8193 44.6703 92.642C45.0157 92.4647 45.305 92.1987 45.5383 91.844L46.5603 92.488C46.271 93.0013 45.8603 93.398 45.3283 93.678C44.8057 93.9487 44.2083 94.084 43.5363 94.084ZM52.5681 93.566C52.3721 93.734 52.1294 93.8647 51.8401 93.958C51.5507 94.042 51.2521 94.084 50.9441 94.084C50.1974 94.084 49.6187 93.8833 49.2081 93.482C48.7974 93.0807 48.5921 92.5067 48.5921 91.76V87.686H47.3321V86.58H48.5921V84.956H49.9361V86.58H52.0641V87.686H49.9361V91.704C49.9361 92.1053 50.0341 92.4133 50.2301 92.628C50.4354 92.8427 50.7247 92.95 51.0981 92.95C51.5087 92.95 51.8587 92.8333 52.1481 92.6L52.5681 93.566Z" fill="black"/>
</svg>
