<svg width="298" height="124" viewBox="0 0 298 124" fill="none" xmlns="http://www.w3.org/2000/svg">
<rect x="0.5" y="0.5" width="297" height="122.087" fill="white" stroke="#ECECEC"/>
<path d="M255.243 59.2189V55.5133H250.603V49.7525L250.447 49.8002L246.088 51.1227L246.002 51.1486V55.5135H239.123V53.0819C239.123 51.9496 239.378 51.0831 239.881 50.5053C240.381 49.9344 241.095 49.6441 242.007 49.6441C242.662 49.6441 243.341 49.7972 244.024 50.099L244.195 50.1749V46.2724L244.114 46.243C243.477 46.016 242.611 45.9016 241.537 45.9016C240.183 45.9016 238.954 46.1937 237.881 46.7726C236.808 47.3523 235.964 48.1798 235.372 49.232C234.783 50.2829 234.484 51.4967 234.484 52.8399V55.5133H231.253V59.2189H234.484V74.8299H239.123V59.2189H246.002V69.1395C246.002 73.2252 247.946 75.2957 251.779 75.2957C252.408 75.2957 253.071 75.2225 253.748 75.0792C254.437 74.932 254.906 74.7851 255.183 74.6281L255.244 74.5923V70.8524L255.055 70.9762C254.803 71.1425 254.49 71.2784 254.122 71.3795C253.753 71.4825 253.445 71.534 253.206 71.534C252.308 71.534 251.644 71.2941 251.232 70.8206C250.815 70.3429 250.603 69.5074 250.603 68.3386V59.2189H255.243ZM220.894 71.5346C219.21 71.5346 217.883 70.981 216.947 69.8906C216.006 68.7946 215.529 67.232 215.529 65.2467C215.529 63.1985 216.006 61.5954 216.948 60.48C217.884 59.372 219.198 58.8096 220.856 58.8096C222.464 58.8096 223.745 59.3467 224.662 60.4068C225.584 61.4725 226.051 63.0627 226.051 65.1348C226.051 67.2324 225.612 68.8437 224.744 69.9215C223.883 70.9912 222.587 71.5346 220.894 71.5346V71.5346ZM221.1 55.048C217.888 55.048 215.337 55.9813 213.517 57.8221C211.7 59.6631 210.778 62.2107 210.778 65.3949C210.778 68.4193 211.678 70.852 213.452 72.6243C215.227 74.3972 217.642 75.2953 220.63 75.2953C223.744 75.2953 226.244 74.3489 228.063 72.4826C229.881 70.6184 230.802 68.0948 230.802 64.985C230.802 61.9133 229.938 59.4625 228.232 57.702C226.526 55.9408 224.126 55.048 221.1 55.048V55.048ZM203.299 55.048C201.114 55.048 199.306 55.6022 197.926 56.6949C196.537 57.7942 195.832 59.2359 195.832 60.9804C195.832 61.8872 195.984 62.6928 196.283 63.376C196.585 64.0615 197.051 64.665 197.67 65.1715C198.284 65.674 199.232 66.2003 200.489 66.7357C201.546 67.1668 202.334 67.5315 202.834 67.8189C203.323 68.1005 203.671 68.3837 203.867 68.6594C204.057 68.9293 204.154 69.2986 204.154 69.7544C204.154 71.0522 203.174 71.6836 201.157 71.6836C200.409 71.6836 199.556 71.5287 198.621 71.2234C197.693 70.9227 196.817 70.4823 196.024 69.9177L195.832 69.7807V74.2093L195.902 74.2419C196.559 74.5423 197.386 74.7957 198.362 74.995C199.335 75.1946 200.22 75.2961 200.988 75.2961C203.359 75.2961 205.268 74.7392 206.661 73.64C208.064 72.5332 208.774 71.0575 208.774 69.2526C208.774 67.9505 208.392 66.834 207.638 65.9334C206.889 65.0403 205.589 64.2203 203.776 63.4955C202.332 62.9207 201.407 62.4435 201.025 62.0772C200.657 61.7234 200.471 61.223 200.471 60.5893C200.471 60.0275 200.701 59.5775 201.175 59.213C201.652 58.8467 202.316 58.6604 203.149 58.6604C203.921 58.6604 204.712 58.7815 205.499 59.0188C206.284 59.256 206.975 59.5738 207.551 59.9625L207.74 60.0909V55.89L207.668 55.859C207.136 55.633 206.435 55.4395 205.584 55.2826C204.736 55.1267 203.968 55.048 203.299 55.048V55.048ZM183.739 71.5346C182.056 71.5346 180.728 70.981 179.793 69.8906C178.852 68.7946 178.376 67.2324 178.376 65.2467C178.376 63.1985 178.852 61.5954 179.794 60.48C180.729 59.372 182.044 58.8096 183.702 58.8096C185.31 58.8096 186.59 59.3467 187.508 60.4068C188.43 61.4725 188.897 63.0627 188.897 65.1348C188.897 67.2324 188.457 68.8437 187.59 69.9215C186.728 70.9912 185.433 71.5346 183.739 71.5346V71.5346ZM183.946 55.048C180.733 55.048 178.182 55.9813 176.364 57.8221C174.546 59.6631 173.623 62.2107 173.623 65.3949C173.623 68.4206 174.524 70.852 176.298 72.6243C178.073 74.3972 180.488 75.2953 183.476 75.2953C186.589 75.2953 189.091 74.3489 190.909 72.4826C192.727 70.6184 193.648 68.0948 193.648 64.985C193.648 61.9133 192.784 59.4625 191.078 57.702C189.371 55.9408 186.971 55.048 183.946 55.048V55.048ZM166.582 58.8586V55.5133H162V74.8295H166.582V64.9485C166.582 63.2684 166.966 61.8881 167.724 60.8455C168.473 59.8153 169.47 59.2933 170.688 59.2933C171.1 59.2933 171.564 59.3608 172.066 59.4943C172.562 59.627 172.922 59.7711 173.134 59.9228L173.327 60.0612V55.4803L173.252 55.4487C172.826 55.2689 172.222 55.1782 171.458 55.1782C170.307 55.1782 169.276 55.5451 168.394 56.2675C167.619 56.9024 167.059 57.773 166.631 58.8586H166.582ZM153.794 55.048C151.692 55.048 149.817 55.495 148.222 56.3761C146.624 57.2593 145.388 58.5202 144.547 60.1235C143.71 61.723 143.285 63.5913 143.285 65.6748C143.285 67.4999 143.697 69.1747 144.512 70.6508C145.327 72.1294 146.48 73.2861 147.94 74.0884C149.398 74.8897 151.084 75.2959 152.95 75.2959C155.127 75.2959 156.987 74.8642 158.477 74.0128L158.537 73.9785V69.8158L158.345 69.9552C157.67 70.4429 156.915 70.8322 156.103 71.1127C155.293 71.393 154.555 71.5346 153.907 71.5346C152.109 71.5346 150.666 70.9768 149.618 69.8769C148.568 68.7756 148.036 67.2292 148.036 65.2832C148.036 63.3251 148.591 61.7389 149.685 60.5685C150.776 59.4016 152.222 58.8096 153.983 58.8096C155.489 58.8096 156.957 59.3153 158.345 60.3141L158.537 60.4525V56.0663L158.475 56.0317C157.953 55.7416 157.24 55.5021 156.356 55.3205C155.475 55.1393 154.613 55.048 153.794 55.048V55.048ZM140.129 55.5135H135.547V74.8295H140.129V55.5135V55.5135ZM137.885 47.2848C137.131 47.2848 136.473 47.5394 135.932 48.0438C135.39 48.5497 135.115 49.1867 135.115 49.9384C135.115 50.6783 135.387 51.3037 135.924 51.7961C136.458 52.2871 137.118 52.536 137.885 52.536C138.652 52.536 139.314 52.2871 139.855 51.7969C140.398 51.3037 140.674 50.6785 140.674 49.9384C140.674 49.213 140.406 48.5826 139.877 48.0642C139.349 47.5469 138.678 47.2848 137.885 47.2848ZM126.452 54.0884V74.8295H131.128V47.8761H124.656L116.43 67.8963L108.446 47.8761H101.711V74.8293H106.105V54.0863H106.256L114.686 74.8295H118.003L126.301 54.0884H126.452V54.0884Z" fill="#706D6E"/>
<path d="M64.3122 60.2445H42.7565V38.8694H64.3122V60.2445Z" fill="#F1511B"/>
<path d="M88.112 60.2442H66.5568V38.8691H88.112V60.2442Z" fill="#80CC28"/>
<path d="M64.3115 83.8521H42.7564V62.4783H64.3115V83.8521Z" fill="#00ADEF"/>
<path d="M88.112 83.8521H66.5568V62.4783H88.112V83.8521Z" fill="#FBBC09"/>
</svg>
