<svg width="298" height="123" viewBox="0 0 298 123" fill="none" xmlns="http://www.w3.org/2000/svg">
<rect x="0.5" y="0.5" width="297" height="121.674" fill="white" stroke="#ECECEC"/>
<path fill-rule="evenodd" clip-rule="evenodd" d="M95.6432 90.9409C95.6432 90.6943 95.7627 90.571 96.0029 90.571H97.1916C97.2753 90.5719 97.3575 90.5923 97.4319 90.6305C97.5232 90.6839 97.5957 90.7641 97.6395 90.8601L103.071 100.663L103.419 101.611L103.31 100.652L103.223 90.9409C103.22 90.8442 103.253 90.7498 103.315 90.6759C103.352 90.6384 103.397 90.6096 103.446 90.5914C103.495 90.5733 103.548 90.5663 103.6 90.571H104.821C104.912 90.5675 105.001 90.5978 105.071 90.656C105.107 90.692 105.134 90.7352 105.151 90.7827C105.168 90.8302 105.174 90.8808 105.17 90.9309V104.445C105.17 104.685 105.043 104.805 104.788 104.805H103.633C103.546 104.804 103.46 104.785 103.381 104.75C103.285 104.705 103.211 104.625 103.175 104.526L97.7717 94.8633L97.3892 93.8855L97.5101 94.8775L97.5755 104.44C97.5755 104.686 97.4589 104.81 97.2257 104.81H96.0044C95.7641 104.81 95.6446 104.686 95.6446 104.44L95.6432 90.9409Z" fill="#0E1624"/>
<path fill-rule="evenodd" clip-rule="evenodd" d="M109.435 100.223H113.262L111.521 93.9739L111.356 92.9153L111.191 93.9739L109.435 100.223ZM116.558 104.432C116.581 104.475 116.592 104.523 116.589 104.571C116.586 104.62 116.57 104.667 116.543 104.707C116.512 104.742 116.474 104.771 116.431 104.789C116.387 104.807 116.341 104.815 116.294 104.812H114.872C114.787 104.811 114.704 104.79 114.629 104.752C114.586 104.728 114.549 104.696 114.52 104.656C114.492 104.616 114.472 104.571 114.464 104.522L113.724 101.898H108.961L108.233 104.522C108.224 104.571 108.205 104.616 108.176 104.656C108.147 104.695 108.11 104.728 108.067 104.752C107.992 104.79 107.909 104.811 107.825 104.812H106.403C106.358 104.815 106.312 104.807 106.27 104.789C106.228 104.77 106.191 104.742 106.162 104.707C106.135 104.667 106.119 104.62 106.115 104.572C106.111 104.524 106.119 104.476 106.139 104.432L110.34 90.8861C110.365 90.7906 110.422 90.7064 110.501 90.648C110.571 90.601 110.653 90.5763 110.737 90.5772H111.961C112.048 90.5768 112.132 90.6014 112.205 90.648C112.286 90.7057 112.344 90.79 112.369 90.8861L116.558 104.432Z" fill="#0E1624"/>
<path fill-rule="evenodd" clip-rule="evenodd" d="M122.257 90.95C122.251 90.8963 122.257 90.8421 122.276 90.7912C122.294 90.7404 122.323 90.6944 122.362 90.6567C122.423 90.6033 122.501 90.5732 122.582 90.5716H123.839C123.892 90.5661 123.946 90.5733 123.995 90.5925C124.044 90.6117 124.089 90.6425 124.124 90.6822C124.181 90.7746 124.208 90.8825 124.202 90.9911L124.192 102.074C124.201 102.595 124.104 103.112 123.908 103.594C123.732 104.027 123.469 104.419 123.135 104.746C122.8 105.073 122.402 105.327 121.964 105.493C121.505 105.668 121.017 105.755 120.525 105.75C119.988 105.751 119.457 105.645 118.961 105.439C118.494 105.256 118.073 104.971 117.73 104.606C117.655 104.528 117.598 104.436 117.562 104.334C117.542 104.279 117.539 104.22 117.554 104.164C117.569 104.107 117.601 104.057 117.646 104.02L118.327 103.222C118.36 103.18 118.404 103.147 118.454 103.127C118.504 103.107 118.558 103.1 118.611 103.107C118.711 103.131 118.801 103.186 118.869 103.264C119.059 103.435 119.272 103.578 119.503 103.689C119.791 103.83 120.109 103.9 120.43 103.893C120.682 103.896 120.933 103.844 121.163 103.742C121.384 103.643 121.581 103.498 121.741 103.317C121.908 103.123 122.036 102.899 122.117 102.656C122.213 102.383 122.261 102.095 122.26 101.806L122.257 90.95Z" fill="#0E1624"/>
<path fill-rule="evenodd" clip-rule="evenodd" d="M129.115 100.969C129.111 101.368 129.17 101.765 129.289 102.146C129.397 102.493 129.573 102.815 129.808 103.092C130.043 103.363 130.334 103.58 130.661 103.727C131.03 103.888 131.43 103.968 131.833 103.959C132.237 103.967 132.638 103.888 133.009 103.727C133.336 103.579 133.627 103.362 133.862 103.092C134.1 102.817 134.278 102.496 134.387 102.15C134.506 101.771 134.565 101.376 134.562 100.979V95.5562C134.564 95.1622 134.503 94.7704 134.381 94.3957C134.269 94.0486 134.091 93.7263 133.856 93.4462C133.622 93.1726 133.331 92.953 133.003 92.8029C132.634 92.6377 132.232 92.5564 131.827 92.5648C131.426 92.5576 131.029 92.6368 130.661 92.7972C130.333 92.9451 130.042 93.1633 129.808 93.4363C129.574 93.7168 129.397 94.041 129.289 94.39C129.171 94.7674 129.112 95.1608 129.115 95.5562V100.969ZM127.154 95.6979C127.15 95.0541 127.25 94.4139 127.451 93.8019C127.638 93.2261 127.939 92.6933 128.335 92.2346C128.739 91.7775 129.238 91.4142 129.798 91.1704C131.097 90.6509 132.547 90.6509 133.846 91.1704C134.405 91.416 134.905 91.7773 135.312 92.2304C135.716 92.6836 136.023 93.214 136.214 93.7892C136.419 94.4012 136.523 95.0426 136.521 95.688V100.849C136.525 101.493 136.423 102.134 136.219 102.745C136.028 103.319 135.724 103.849 135.324 104.304C134.916 104.759 134.413 105.12 133.851 105.362C133.211 105.632 132.522 105.764 131.827 105.749C131.136 105.764 130.449 105.63 129.814 105.358C129.255 105.116 128.754 104.757 128.345 104.305C127.945 103.851 127.641 103.321 127.451 102.746C127.246 102.135 127.144 101.495 127.148 100.85L127.154 95.6979Z" fill="#0E1624"/>
<path fill-rule="evenodd" clip-rule="evenodd" d="M137.536 90.9116C137.532 90.8655 137.538 90.8192 137.552 90.7754C137.567 90.7316 137.59 90.6912 137.621 90.6565C137.649 90.6283 137.682 90.6062 137.719 90.5916C137.755 90.5769 137.795 90.5701 137.834 90.5715H145.816C145.855 90.5712 145.892 90.5787 145.928 90.5933C145.963 90.6079 145.995 90.6294 146.021 90.6565C146.082 90.7271 146.112 90.8188 146.105 90.9116V92.0197C146.109 92.0639 146.104 92.1085 146.09 92.1506C146.075 92.1926 146.052 92.2311 146.021 92.2634C145.965 92.3131 145.892 92.3399 145.816 92.3385H142.741V104.466C142.748 104.558 142.719 104.649 142.661 104.721C142.635 104.749 142.602 104.771 142.566 104.786C142.53 104.801 142.491 104.807 142.452 104.806H141.198C141.158 104.808 141.117 104.802 141.08 104.787C141.042 104.772 141.008 104.75 140.979 104.721C140.921 104.649 140.893 104.558 140.9 104.466V92.3385H137.834C137.793 92.341 137.751 92.3342 137.712 92.3187C137.673 92.3032 137.638 92.2794 137.61 92.249C137.581 92.2185 137.56 92.1822 137.547 92.1426C137.534 92.103 137.53 92.061 137.536 92.0197V90.9116Z" fill="#0E1624"/>
<path fill-rule="evenodd" clip-rule="evenodd" d="M151.818 90.9116C151.811 90.8189 151.841 90.7271 151.902 90.6565C151.93 90.6282 151.963 90.606 152 90.5913C152.037 90.5767 152.077 90.5699 152.117 90.5715H160.099C160.137 90.5709 160.175 90.5781 160.21 90.5928C160.245 90.6074 160.276 90.6291 160.302 90.6565C160.333 90.6912 160.356 90.7317 160.371 90.7755C160.386 90.8193 160.391 90.8656 160.388 90.9116V92.0198C160.392 92.0641 160.387 92.1089 160.372 92.151C160.357 92.1931 160.333 92.2315 160.302 92.2635C160.247 92.3134 160.174 92.3403 160.099 92.3386H157.024V104.466C157.03 104.558 157.002 104.649 156.944 104.721C156.917 104.749 156.885 104.771 156.849 104.786C156.813 104.8 156.774 104.807 156.735 104.806H155.481C155.44 104.808 155.4 104.802 155.362 104.787C155.324 104.772 155.29 104.75 155.262 104.721C155.203 104.649 155.175 104.558 155.182 104.466V92.3386H152.117C152.075 92.341 152.033 92.3342 151.995 92.3188C151.956 92.3033 151.921 92.2795 151.892 92.249C151.864 92.2186 151.843 92.1823 151.83 92.1426C151.817 92.103 151.813 92.0611 151.818 92.0198V90.9116Z" fill="#0E1624"/>
<path fill-rule="evenodd" clip-rule="evenodd" d="M162.754 100.223H166.581L164.839 93.9739L164.674 92.9153L164.508 93.9739L162.754 100.223ZM169.877 104.432C169.9 104.475 169.911 104.523 169.908 104.571C169.906 104.62 169.889 104.667 169.861 104.707C169.831 104.742 169.793 104.771 169.75 104.789C169.706 104.807 169.659 104.815 169.613 104.812H168.191C168.106 104.811 168.023 104.79 167.948 104.752C167.905 104.728 167.868 104.695 167.839 104.656C167.811 104.616 167.791 104.57 167.783 104.522L167.043 101.898H162.28L161.552 104.522C161.543 104.571 161.523 104.616 161.495 104.656C161.466 104.695 161.429 104.728 161.386 104.752C161.311 104.79 161.228 104.811 161.144 104.812H159.722C159.676 104.815 159.631 104.807 159.588 104.789C159.546 104.77 159.509 104.742 159.481 104.707C159.454 104.667 159.437 104.62 159.433 104.572C159.429 104.524 159.438 104.476 159.458 104.432L163.659 90.8861C163.684 90.7906 163.74 90.7064 163.82 90.648C163.89 90.601 163.972 90.5763 164.056 90.5772H165.28C165.366 90.5768 165.451 90.6014 165.523 90.648C165.605 90.7057 165.663 90.79 165.688 90.8861L169.877 104.432Z" fill="#0E1624"/>
<path fill-rule="evenodd" clip-rule="evenodd" d="M171.812 91.0508C171.806 90.9287 171.837 90.8076 171.902 90.7036C171.931 90.6604 171.97 90.6255 172.017 90.6024C172.064 90.5793 172.116 90.5687 172.168 90.5718H173.362C173.599 90.5718 173.717 90.7319 173.717 91.0508V92.9964C173.723 93.2085 173.688 93.4197 173.614 93.6185C173.554 93.7781 173.46 93.9231 173.339 94.0436C173.225 94.152 173.09 94.2355 172.942 94.2888C172.795 94.3409 172.641 94.3678 172.485 94.3681C172.446 94.3732 172.407 94.3695 172.37 94.357C172.333 94.3446 172.3 94.3239 172.272 94.2965C172.245 94.269 172.224 94.2357 172.211 94.199C172.199 94.1622 172.195 94.1231 172.2 94.0847V93.6171C172.196 93.5804 172.201 93.5432 172.215 93.509C172.228 93.4748 172.251 93.4447 172.28 93.4215C172.338 93.3828 172.406 93.3629 172.476 93.3648C172.511 93.3683 172.546 93.3627 172.578 93.3486C172.61 93.3344 172.637 93.3122 172.658 93.2841C172.696 93.2147 172.714 93.1362 172.709 93.0573C172.715 92.9844 172.7 92.9112 172.667 92.8462C172.649 92.8234 172.625 92.8056 172.598 92.7944C172.571 92.7832 172.542 92.7791 172.513 92.7824H172.138C172.095 92.7833 172.053 92.7746 172.014 92.757C171.975 92.7393 171.94 92.7131 171.913 92.6804C171.842 92.5855 171.809 92.468 171.819 92.3502L171.812 91.0508Z" fill="#0E1624"/>
<path fill-rule="evenodd" clip-rule="evenodd" d="M176.574 90.9416C176.574 90.6951 176.681 90.5718 176.895 90.5718H178.057C178.272 90.5718 178.378 90.6951 178.378 90.9416V103.049H182.935C182.977 103.046 183.02 103.052 183.059 103.067C183.099 103.083 183.134 103.107 183.163 103.137C183.192 103.168 183.214 103.205 183.227 103.245C183.24 103.285 183.244 103.327 183.238 103.369V104.466C183.245 104.559 183.216 104.65 183.156 104.721C183.127 104.75 183.092 104.772 183.054 104.787C183.016 104.801 182.976 104.808 182.935 104.806H176.895C176.681 104.806 176.574 104.683 176.574 104.436V90.9416Z" fill="#0E1624"/>
<path fill-rule="evenodd" clip-rule="evenodd" d="M185.142 90.9416C185.142 90.6951 185.259 90.5718 185.493 90.5718H186.717C186.936 90.5718 187.047 90.6951 187.047 90.9416V104.436C187.047 104.683 186.936 104.806 186.717 104.806H185.493C185.259 104.806 185.142 104.683 185.142 104.436V90.9416Z" fill="#0E1624"/>
<path fill-rule="evenodd" clip-rule="evenodd" d="M192.86 95.2749L192.482 93.9315L192.612 95.2636L192.696 105.115C192.711 105.363 192.605 105.486 192.381 105.486H191.154C191.109 105.491 191.065 105.484 191.024 105.466C190.984 105.448 190.949 105.419 190.923 105.383C190.877 105.296 190.855 105.198 190.861 105.099V91.0931C190.862 91.003 190.893 90.9159 190.949 90.8452C190.977 90.8138 191.012 90.7891 191.051 90.7729C191.09 90.7567 191.133 90.7495 191.175 90.7516H192.654C192.69 90.7482 192.727 90.7539 192.761 90.7683C192.795 90.7826 192.825 90.8051 192.848 90.8338C192.895 90.9048 192.931 90.9815 192.958 91.062L196.404 100.066L196.572 100.916L196.74 100.049L200.206 91.0563C200.234 90.9761 200.27 90.8995 200.316 90.8281C200.339 90.7997 200.369 90.7773 200.403 90.7629C200.437 90.7486 200.474 90.7428 200.511 90.746H201.971C202.013 90.744 202.055 90.7514 202.094 90.7675C202.133 90.7837 202.167 90.8083 202.196 90.8395C202.251 90.9108 202.281 90.9976 202.284 91.0875V105.099C202.298 105.353 202.204 105.481 201.999 105.481H200.768C200.56 105.481 200.455 105.357 200.455 105.109L200.549 95.2692L200.664 93.9669L200.307 95.2692L197.371 102.879C197.351 102.969 197.307 103.053 197.245 103.121C197.19 103.168 197.118 103.193 197.046 103.189H196.102C196.033 103.192 195.965 103.168 195.914 103.121C195.852 103.053 195.808 102.969 195.787 102.879L192.86 95.2749Z" fill="#0E1624"/>
<path fill-rule="evenodd" clip-rule="evenodd" d="M170.106 46.9882L170.034 35.6234C172.68 34.1397 175.447 32.7297 178.36 31.3793V43.2429C175.39 44.4177 172.631 45.6902 170.113 46.9882H170.106ZM168.04 59.0035C166.808 56.9251 165.441 54.842 163.94 52.7542C165.201 51.9607 166.564 51.1445 168.026 50.3254L168.04 59.0035ZM148.865 81.3846C146.084 79.0308 134.717 69.2729 129.799 62.9302C131.627 59.7002 133.57 56.595 135.628 53.6144C137.555 54.979 139.294 56.3224 140.798 57.5694C139.416 59.2387 138.049 60.9779 136.697 62.787L136.171 63.4956L148.939 75.3295L161.538 63.3879L160.992 62.6864C159.665 60.9746 158.291 59.3063 156.869 57.6814C158.291 56.5874 159.906 55.4141 161.696 54.2152C161.895 54.0801 162.098 53.945 162.305 53.81C164.372 56.6815 166.256 59.6798 167.945 62.787C163.048 69.341 151.655 79.0478 148.868 81.386L148.865 81.3846ZM134.033 52.5077C132.492 54.7353 131.018 57.0229 129.612 59.3705V49.7246C131.205 50.6584 132.684 51.5979 134.033 52.5077ZM121.663 43.4994C120.726 43.0998 119.787 42.7219 118.843 42.3658L118.791 31.5096C121.811 32.887 124.765 34.4104 127.655 36.0797V46.3746C125.672 45.3203 123.674 44.3619 121.663 43.4994ZM129.608 22.2435C135.762 26.6644 141.618 31.4834 147.138 36.6692C146.12 37.698 145.125 38.7423 144.152 39.8023C143.204 40.8415 142.272 41.8972 141.355 42.9694C137.619 40.0455 133.696 37.3664 129.611 34.9489L129.608 22.2435ZM157.132 44.2207C160.583 41.5001 164.216 39.0178 168.006 36.791L168.023 48.0921C166.121 49.1294 164.369 50.1681 162.782 51.17C161.052 48.8535 159.168 46.539 157.132 44.2264V44.2207ZM149.999 50.4756C151.821 48.7099 153.695 47.0312 155.623 45.4394C157.608 47.6944 159.449 49.9574 161.144 52.2285L160.607 52.5856C158.726 53.8482 157.041 55.0726 155.562 56.2119C153.771 54.228 151.916 52.3159 149.999 50.4756ZM142.292 58.8363C145.875 61.934 147.88 64.1857 147.91 64.2211L148.621 65.026L149.355 64.2424C149.384 64.2098 151.487 61.9878 155.326 58.8958C156.552 60.2958 157.744 61.729 158.904 63.1952L148.924 72.647L138.792 63.2561C139.946 61.7285 141.113 60.2538 142.292 58.832V58.8363ZM154.021 57.4277C151.406 59.5321 149.598 61.2339 148.664 62.155C147.764 61.2099 146.03 59.4711 143.558 57.337C145.205 55.4183 146.889 53.5913 148.608 51.8558C150.472 53.6432 152.276 55.5005 154.021 57.4277ZM154.315 43.9812C152.342 45.6137 150.428 47.3311 148.573 49.1336C146.724 47.4162 144.823 45.7667 142.87 44.1853C144.683 42.0549 146.572 39.9978 148.536 38.014C150.57 39.9893 152.496 41.9775 154.315 43.9784V43.9812ZM141.611 45.6817C143.517 47.2234 145.375 48.8323 147.183 50.5082C145.437 52.2739 143.731 54.1288 142.065 56.073C140.519 54.7976 138.742 53.4203 136.756 52.0145C138.309 49.8417 139.929 47.7308 141.614 45.6817H141.611ZM135.153 50.9092C133.329 49.6745 131.48 48.5243 129.608 47.4587V37.2346C133.244 39.4398 136.746 41.8573 140.096 44.4743C138.389 46.5527 136.742 48.6972 135.153 50.9078V50.9092ZM167.982 22.1429L168.002 34.5252C163.743 36.9642 159.672 39.7162 155.824 42.7583C154.999 41.8485 154.151 40.9407 153.28 40.0347C152.19 38.901 151.066 37.7721 149.908 36.6479C155.452 31.2467 161.505 26.3894 167.982 22.1429ZM104.885 40.7319C108.982 41.3356 113.007 42.3463 116.901 43.7488L116.957 55.8689L104.885 40.7319ZM180.318 44.5863C184.327 43.0664 188.449 41.8592 192.647 40.9756L180.314 56.0688L180.318 44.5863ZM197.522 38.0947L194.939 38.5425C189.954 39.4171 185.058 40.7409 180.314 42.4975V28.3425L178.937 28.9632C175.809 30.3717 172.846 31.8427 170.02 33.3915L169.924 18.5605L168.427 19.5199C161.265 24.0904 154.591 29.3805 148.511 35.3074C142.771 29.8658 136.299 24.5816 129.199 19.5454L127.655 18.4585V33.8251C124.584 32.0933 121.427 30.516 118.198 29.0992L116.829 28.497L116.893 41.6586C112.309 40.0626 107.555 39.0007 102.726 38.4943L100.409 38.2577L118.937 61.4791L118.855 44.4743C121.875 45.6613 124.814 47.042 127.655 48.6079V63.3312L127.846 63.5905C133.295 70.9437 147.63 82.9079 148.238 83.4124L148.858 83.9296L149.481 83.4166C150.09 82.9164 164.433 71.0769 169.887 63.4361L170.209 62.8862L170.12 49.1847C172.627 47.864 175.381 46.5574 178.367 45.3501V61.5514L197.522 38.0947Z" fill="#BC8F5B"/>
</svg>
