<svg width="298" height="122" viewBox="0 0 298 122" fill="none" xmlns="http://www.w3.org/2000/svg">
<rect x="0.5" y="0.5" width="297" height="120.791" fill="white" stroke="#ECECEC"/>
<path fill-rule="evenodd" clip-rule="evenodd" d="M222.19 35.4544H217.37C217.244 35.4544 217.123 35.5042 217.034 35.5926C216.944 35.6811 216.894 35.8011 216.894 35.9263V76.3941C216.894 76.5192 216.944 76.6392 217.034 76.7277C217.123 76.8162 217.244 76.8659 217.37 76.8659H222.19C222.316 76.8659 222.438 76.8162 222.527 76.7277C222.616 76.6392 222.666 76.5192 222.666 76.3941V35.9263C222.666 35.8011 222.616 35.6811 222.527 35.5926C222.438 35.5042 222.316 35.4544 222.19 35.4544ZM198.085 34.9827C185.069 34.9827 185.069 38.6225 185.069 56.1566V76.3917C185.069 76.5169 185.119 76.6369 185.208 76.7253C185.298 76.8138 185.419 76.8635 185.545 76.8635H190.85C190.977 76.8635 191.098 76.8138 191.187 76.7253C191.277 76.6369 191.327 76.5169 191.327 76.3917V61.3345H204.826V76.3917C204.826 76.5169 204.876 76.6369 204.965 76.7253C205.055 76.8138 205.176 76.8635 205.302 76.8635H210.605C210.732 76.8635 210.853 76.8138 210.942 76.7253C211.031 76.6369 211.082 76.5169 211.082 76.3917V56.1566C211.082 38.7334 211.082 34.9827 198.063 34.9827H198.085ZM191.315 56.1566C191.315 40.1582 191.315 40.1582 198.063 40.1582C204.812 40.1582 204.814 40.1582 204.814 56.1566H191.315ZM142.623 46.275C132.014 46.275 132.014 48.9453 132.014 61.804C132.014 74.6626 132.014 77.333 142.623 77.333C150.881 77.333 152.708 75.6652 153.112 68.8926C153.116 68.8283 153.107 68.7639 153.085 68.7034C153.062 68.6428 153.028 68.5874 152.983 68.5406C152.939 68.4937 152.885 68.4564 152.825 68.4309C152.766 68.4055 152.701 68.3924 152.636 68.3925H147.805C147.684 68.3922 147.568 68.437 147.48 68.518C147.391 68.5989 147.337 68.71 147.328 68.8289C147.033 72.6268 146.033 72.6268 142.632 72.6268C138.108 72.6268 137.83 72.6268 137.81 63.6864H152.777C152.903 63.6864 153.024 63.6367 153.113 63.5482C153.203 63.4597 153.253 63.3397 153.253 63.2146V61.7992C153.253 49.0208 153.253 46.2703 142.647 46.2703L142.623 46.275ZM137.83 58.9756C137.87 50.9787 138.287 50.9764 142.647 50.9764C147.007 50.9764 147.409 50.9764 147.462 58.9756H137.83ZM88.1638 34.9827C75.1478 34.9827 75.1478 38.6225 75.1478 56.1566C75.1478 73.6907 75.1478 77.333 88.1638 77.333C101.18 77.333 101.182 73.5822 101.182 56.1566C101.182 38.731 101.182 34.9827 88.1638 34.9827ZM88.1638 72.1574C81.4153 72.1574 81.4153 72.1574 81.4153 56.1566C81.4153 40.1558 81.4153 40.1582 88.1638 40.1582C94.9122 40.1582 94.9122 40.1582 94.9122 56.1566C94.9122 72.155 94.9122 72.1574 88.1638 72.1574ZM168.676 46.275C165.423 46.275 163.738 46.9331 162.866 49.035L162.109 47.1903C162.055 47.0579 161.962 46.9447 161.842 46.8656C161.722 46.7864 161.581 46.745 161.437 46.7468H158.554C158.427 46.7468 158.306 46.7965 158.217 46.8849C158.127 46.9734 158.077 47.0934 158.077 47.2185V76.3941C158.077 76.5192 158.127 76.6392 158.217 76.7277C158.306 76.8162 158.427 76.8659 158.554 76.8659H163.373C163.5 76.8659 163.621 76.8162 163.71 76.7277C163.799 76.6392 163.849 76.5192 163.849 76.3941V61.804C163.849 50.9811 163.849 50.9811 168.669 50.9811C173.489 50.9811 173.491 50.9811 173.491 61.804V76.3917C173.491 76.5169 173.541 76.6369 173.631 76.7253C173.72 76.8138 173.841 76.8635 173.967 76.8635H178.789C178.916 76.8635 179.037 76.8138 179.126 76.7253C179.215 76.6369 179.266 76.5169 179.266 76.3917V61.804C179.266 48.9453 179.266 46.275 168.657 46.275H168.676ZM116.591 46.275C113.338 46.275 111.652 46.9331 110.781 49.035L110.024 47.1903C109.97 47.0579 109.877 46.9447 109.757 46.8656C109.637 46.7864 109.496 46.745 109.352 46.7468H106.485C106.359 46.7468 106.238 46.7965 106.148 46.8849C106.059 46.9734 106.009 47.0934 106.009 47.2185V87.217C106.009 87.3421 106.059 87.4621 106.148 87.5506C106.238 87.6391 106.359 87.6888 106.485 87.6888H111.307C111.433 87.6888 111.555 87.6391 111.644 87.5506C111.733 87.4621 111.783 87.3421 111.783 87.217V76.0662C113.167 77.0866 114.893 77.541 116.605 77.3353C127.212 77.3353 127.212 74.6673 127.212 61.8063C127.212 48.9453 127.212 46.2773 116.605 46.2773L116.591 46.275ZM116.605 72.6292C111.783 72.6292 111.783 72.6292 111.783 61.8063C111.783 50.9834 111.783 50.9834 116.605 50.9834C121.427 50.9834 121.427 50.9834 121.427 61.8063C121.427 72.6292 121.427 72.6292 116.605 72.6292Z" fill="#A2A6B8"/>
</svg>
