<svg width="65" height="97" viewBox="0 0 65 97" fill="none" xmlns="http://www.w3.org/2000/svg">
<path d="M35.4782 0.24556C19.0438 -1.85445 4.01377 9.74621 1.90627 26.1825C-0.193739 42.6169 11.4069 57.6469 27.8432 59.7544C44.2776 61.8544 59.3076 50.2538 61.4058 33.8175C63.5152 17.3831 51.9164 2.35306 35.4782 0.24556ZM41.6507 18.9656C41.0938 18.9656 40.5651 19.1906 40.1751 19.59L29.0432 30.7125L28.2726 29.9494L26.6694 28.3387C37.6363 17.4018 39.6201 17.2931 41.6489 18.9637L41.6507 18.9656ZM29.5026 31.1119L40.5951 20.01C40.7413 19.8576 40.9169 19.7366 41.1113 19.6542C41.3056 19.5718 41.5147 19.5298 41.7259 19.5306C41.937 19.5315 42.1457 19.5753 42.3394 19.6593C42.5331 19.7433 42.7077 19.8658 42.8526 20.0194C42.9965 20.173 43.1075 20.3544 43.1789 20.5524C43.2503 20.7504 43.2805 20.9609 43.2677 21.171C43.2549 21.3811 43.1993 21.5864 43.1044 21.7743C43.0095 21.9622 42.8772 22.1287 42.7157 22.2637L30.9688 32.5763L29.5026 31.1119ZM30.3238 32.8519L27.5694 33.4463C27.5362 33.4508 27.5023 33.4448 27.4727 33.4289C27.443 33.4131 27.4191 33.3883 27.4044 33.3581C27.3894 33.3292 27.3842 33.2962 27.3896 33.2641C27.395 33.2319 27.4108 33.2024 27.4344 33.18L29.0451 31.5694L30.3238 32.8519ZM23.3113 31.7006L26.2513 28.77L28.4488 30.9675L23.4969 32.0306C23.4553 32.0416 23.4111 32.038 23.3718 32.0202C23.3325 32.0024 23.3006 31.9717 23.2813 31.9331C23.2598 31.8965 23.2511 31.8538 23.2565 31.8117C23.2619 31.7697 23.2812 31.7306 23.3113 31.7006ZM14.2007 46.845C14.0938 46.8357 14.0132 46.7382 14.0225 46.6407C14.0305 46.5962 14.0513 46.5551 14.0825 46.5225H14.0919L16.4544 44.16L19.5126 47.2182L14.2007 46.845ZM20.2626 43.7007C20.1502 43.7616 20.0608 43.8576 20.008 43.9741C19.9552 44.0905 19.9419 44.221 19.9701 44.3457L20.4782 46.5057C20.5588 46.8188 20.1763 47.0307 19.9513 46.7982H19.9419L16.8763 43.7307L26.2813 34.335L30.832 33.3506L33.0088 35.5388C29.8738 38.2913 25.5857 41.0363 20.2644 43.7007H20.2626ZM33.4588 35.1375L31.3588 33.0375L43.1057 22.725C43.2126 22.6275 43.3101 22.5206 43.3982 22.4119C43.0382 25.7719 38.3301 30.5175 33.4588 35.1375ZM42.6089 18.9844H42.5995C38.5063 14.8725 44.2889 8.5537 48.742 12.2643L44.7201 16.2993C44.692 16.3274 44.6697 16.3607 44.6545 16.3974C44.6392 16.4341 44.6314 16.4734 44.6314 16.5131C44.6314 16.5528 44.6392 16.5921 44.6545 16.6288C44.6697 16.6655 44.692 16.6988 44.7201 16.7268L47.8345 19.845C46.9832 20.2673 46.0206 20.4114 45.0829 20.257C44.1452 20.1026 43.2798 19.6574 42.6089 18.9844V18.9844ZM49.0439 18.9844C48.8399 19.19 48.6142 19.373 48.3707 19.53L45.3539 16.5131L49.1807 12.675C49.9776 13.5405 50.4085 14.681 50.383 15.8572C50.3575 17.0335 49.8775 18.1542 49.0439 18.9844V18.9844ZM48.7982 15.1275C48.738 15.1704 48.6927 15.231 48.6685 15.3009C48.6443 15.3708 48.6425 15.4465 48.6632 15.5175C48.7541 15.6966 48.7905 15.8985 48.7678 16.0981C48.7451 16.2978 48.6645 16.4864 48.5357 16.6406C48.506 16.6767 48.4839 16.7184 48.4707 16.7632C48.4575 16.808 48.4535 16.855 48.459 16.9014C48.4644 16.9478 48.4792 16.9926 48.5023 17.0332C48.5255 17.0738 48.5566 17.1092 48.5939 17.1375C48.6536 17.1803 48.7247 17.2045 48.7982 17.2068C48.9051 17.2068 49.0064 17.1675 49.0626 17.0887C49.2779 16.8298 49.4136 16.5141 49.4536 16.1798C49.4935 15.8454 49.4359 15.5067 49.2876 15.2043C49.2608 15.1668 49.2268 15.135 49.1876 15.1107C49.1483 15.0865 49.1046 15.0703 49.0591 15.0631C49.0135 15.056 48.967 15.058 48.9222 15.069C48.8774 15.0801 48.8353 15.0999 48.7982 15.1275V15.1275Z" fill="#00094A"/>
<path d="M5.62891 84.2C6.89825 84.2 7.89691 84.5033 8.62491 85.11C9.35291 85.7167 9.71691 86.552 9.71691 87.616C9.71691 88.68 9.35291 89.5153 8.62491 90.122C7.89691 90.7287 6.89825 91.032 5.62891 91.032H3.20691V94H1.80691V84.2H5.62891ZM5.58691 89.814C6.47358 89.814 7.15025 89.6273 7.61691 89.254C8.08358 88.8713 8.31691 88.3253 8.31691 87.616C8.31691 86.9067 8.08358 86.3653 7.61691 85.992C7.15025 85.6093 6.47358 85.418 5.58691 85.418H3.20691V89.814H5.58691ZM14.7284 94.084C13.991 94.084 13.3284 93.9207 12.7404 93.594C12.1524 93.2673 11.6904 92.8193 11.3544 92.25C11.0277 91.6713 10.8644 91.018 10.8644 90.29C10.8644 89.562 11.0277 88.9133 11.3544 88.344C11.6904 87.7653 12.1524 87.3173 12.7404 87C13.3284 86.6733 13.991 86.51 14.7284 86.51C15.4657 86.51 16.1237 86.6733 16.7024 87C17.2904 87.3173 17.7477 87.7653 18.0744 88.344C18.4104 88.9133 18.5784 89.562 18.5784 90.29C18.5784 91.018 18.4104 91.6713 18.0744 92.25C17.7477 92.8193 17.2904 93.2673 16.7024 93.594C16.1237 93.9207 15.4657 94.084 14.7284 94.084ZM14.7284 92.908C15.2044 92.908 15.629 92.8007 16.0024 92.586C16.385 92.362 16.6837 92.054 16.8984 91.662C17.113 91.2607 17.2204 90.8033 17.2204 90.29C17.2204 89.7767 17.113 89.324 16.8984 88.932C16.6837 88.5307 16.385 88.2227 16.0024 88.008C15.629 87.7933 15.2044 87.686 14.7284 87.686C14.2524 87.686 13.823 87.7933 13.4404 88.008C13.067 88.2227 12.7684 88.5307 12.5444 88.932C12.3297 89.324 12.2224 89.7767 12.2224 90.29C12.2224 90.8033 12.3297 91.2607 12.5444 91.662C12.7684 92.054 13.067 92.362 13.4404 92.586C13.823 92.8007 14.2524 92.908 14.7284 92.908ZM22.5651 94.084C21.9584 94.084 21.3751 94.0047 20.8151 93.846C20.2551 93.678 19.8164 93.468 19.4991 93.216L20.0591 92.152C20.3858 92.3853 20.7824 92.572 21.2491 92.712C21.7158 92.852 22.1871 92.922 22.6631 92.922C23.8391 92.922 24.4271 92.586 24.4271 91.914C24.4271 91.69 24.3478 91.5127 24.1891 91.382C24.0304 91.2513 23.8298 91.158 23.5871 91.102C23.3538 91.0367 23.0178 90.9667 22.5791 90.892C21.9818 90.7987 21.4918 90.6913 21.1091 90.57C20.7358 90.4487 20.4138 90.2433 20.1431 89.954C19.8724 89.6647 19.7371 89.2587 19.7371 88.736C19.7371 88.064 20.0171 87.5273 20.5771 87.126C21.1371 86.7153 21.8884 86.51 22.8311 86.51C23.3258 86.51 23.8204 86.5707 24.3151 86.692C24.8098 86.8133 25.2158 86.9767 25.5331 87.182L24.9591 88.246C24.3524 87.854 23.6384 87.658 22.8171 87.658C22.2478 87.658 21.8138 87.7513 21.5151 87.938C21.2164 88.1247 21.0671 88.372 21.0671 88.68C21.0671 88.9227 21.1511 89.114 21.3191 89.254C21.4871 89.394 21.6924 89.4967 21.9351 89.562C22.1871 89.6273 22.5371 89.702 22.9851 89.786C23.5824 89.8887 24.0631 90.0007 24.4271 90.122C24.8004 90.234 25.1178 90.43 25.3791 90.71C25.6404 90.99 25.7711 91.382 25.7711 91.886C25.7711 92.558 25.4818 93.0947 24.9031 93.496C24.3338 93.888 23.5544 94.084 22.5651 94.084ZM31.6228 93.566C31.4268 93.734 31.1841 93.8647 30.8948 93.958C30.6054 94.042 30.3068 94.084 29.9988 94.084C29.2521 94.084 28.6734 93.8833 28.2628 93.482C27.8521 93.0807 27.6468 92.5067 27.6468 91.76V87.686H26.3868V86.58H27.6468V84.956H28.9908V86.58H31.1188V87.686H28.9908V91.704C28.9908 92.1053 29.0888 92.4133 29.2848 92.628C29.4901 92.8427 29.7794 92.95 30.1528 92.95C30.5634 92.95 30.9134 92.8333 31.2028 92.6L31.6228 93.566ZM42.5296 86.51C43.463 86.51 44.2003 86.7807 44.7416 87.322C45.2923 87.8633 45.5676 88.666 45.5676 89.73V94H44.2236V89.884C44.2236 89.1653 44.0556 88.624 43.7196 88.26C43.393 87.896 42.9216 87.714 42.3056 87.714C41.6243 87.714 41.083 87.9287 40.6816 88.358C40.2803 88.778 40.0796 89.3847 40.0796 90.178V94H38.7356V89.884C38.7356 89.1653 38.5676 88.624 38.2316 88.26C37.905 87.896 37.4336 87.714 36.8176 87.714C36.1363 87.714 35.595 87.9287 35.1936 88.358C34.7923 88.778 34.5916 89.3847 34.5916 90.178V94H33.2476V86.58H34.5356V87.686C34.8063 87.3033 35.161 87.014 35.5996 86.818C36.0383 86.6127 36.5376 86.51 37.0976 86.51C37.6763 86.51 38.1896 86.6267 38.6376 86.86C39.0856 87.0933 39.431 87.434 39.6736 87.882C39.9536 87.4527 40.341 87.1167 40.8356 86.874C41.3396 86.6313 41.9043 86.51 42.5296 86.51ZM50.7426 86.51C51.7693 86.51 52.5533 86.762 53.0946 87.266C53.6453 87.77 53.9206 88.5213 53.9206 89.52V94H52.6466V93.02C52.4226 93.3653 52.1006 93.6313 51.6806 93.818C51.2699 93.9953 50.7799 94.084 50.2106 94.084C49.3799 94.084 48.7126 93.8833 48.2086 93.482C47.7139 93.0807 47.4666 92.5533 47.4666 91.9C47.4666 91.2467 47.7046 90.724 48.1806 90.332C48.6566 89.9307 49.4126 89.73 50.4486 89.73H52.5766V89.464C52.5766 88.8853 52.4086 88.442 52.0726 88.134C51.7366 87.826 51.2419 87.672 50.5886 87.672C50.1499 87.672 49.7206 87.7467 49.3006 87.896C48.8806 88.036 48.5259 88.2273 48.2366 88.47L47.6766 87.462C48.0593 87.154 48.5166 86.9207 49.0486 86.762C49.5806 86.594 50.1453 86.51 50.7426 86.51ZM50.4346 93.048C50.9479 93.048 51.3913 92.936 51.7646 92.712C52.1379 92.4787 52.4086 92.152 52.5766 91.732V90.696H50.5046C49.3659 90.696 48.7966 91.0787 48.7966 91.844C48.7966 92.2173 48.9413 92.5113 49.2306 92.726C49.5199 92.9407 49.9213 93.048 50.4346 93.048ZM60.3698 86.51C61.3125 86.51 62.0591 86.7853 62.6098 87.336C63.1698 87.8773 63.4498 88.6753 63.4498 89.73V94H62.1058V89.884C62.1058 89.1653 61.9331 88.624 61.5878 88.26C61.2425 87.896 60.7478 87.714 60.1038 87.714C59.3758 87.714 58.8018 87.9287 58.3818 88.358C57.9618 88.778 57.7518 89.3847 57.7518 90.178V94H56.4078V86.58H57.6958V87.7C57.9665 87.3173 58.3305 87.0233 58.7878 86.818C59.2545 86.6127 59.7818 86.51 60.3698 86.51Z" fill="black"/>
</svg>
