<svg width="298" height="122" viewBox="0 0 298 122" fill="none" xmlns="http://www.w3.org/2000/svg">
<rect x="0.5" y="0.5" width="297" height="120.791" fill="white" stroke="#ECECEC"/>
<g clip-path="url(#clip0_284_893)">
<path d="M89.1714 56.7603H70.5274L69.8615 57.2964V73.9794H74.9886V67.6813L75.4546 67.2124H89.1712C92.6336 67.2124 94.2317 66.2745 94.2317 63.8625V60.0435C94.2319 57.6983 92.6338 56.7603 89.1714 56.7603ZM89.1714 62.9243C89.1714 64.0632 88.4389 64.2642 86.7743 64.2642H75.5213L74.9886 63.7953V60.2443L75.4546 59.7753H86.7741C88.3723 59.7753 89.1712 59.9763 89.1712 61.1153L89.1714 62.9243ZM103.687 59.9093L108.148 66.4752L107.882 67.0783H98.0272L95.497 70.2273H110.146L111.211 70.8303L113.475 73.9793H119.401L106.417 56.5593L103.687 59.9093ZM162.482 70.6292V65.9394L163.015 65.4703H172.936V62.5223H157.222V73.9793H180.394V71.0313H163.081L162.482 70.6292ZM157.222 56.7603H180.593V59.9763H157.222V56.7603ZM131.187 59.8423H150.03C149.764 57.4303 148.233 56.7603 144.504 56.7603H130.987C126.726 56.7603 125.394 57.5644 125.394 60.8473V69.9592C125.394 73.1753 126.726 74.0464 130.987 74.0464H144.504C148.299 74.0464 149.764 73.3093 149.897 70.8303H131.187L130.654 70.2942V60.2443L131.187 59.8423ZM57.2103 63.4603H43.5603L43.1608 62.9914V60.0434L43.5603 59.7084H62.0045L62.2708 59.1054C61.6715 57.4973 60.0069 56.6935 57.0105 56.6935H44.1595C39.8981 56.6935 38.5664 57.4974 38.5664 60.7803V62.7234C38.5664 65.9395 39.8981 66.8105 44.1595 66.8105H57.8096L58.2091 67.2123V70.2943L57.8762 70.7634H38.1668C38.1668 70.7634 37.7008 71.0313 37.7008 71.0983C38.0337 73.3764 39.5652 73.9793 43.2273 73.9793H57.2104C61.4718 73.9793 62.8702 73.1753 62.8702 69.8924V67.5473C62.8701 64.3314 61.4718 63.4603 57.2103 63.4603ZM195.309 56.6934H187.585L187.185 57.4973L195.708 63.7954C197.306 62.8573 199.104 61.9194 200.968 60.9813L195.309 56.6934ZM202.233 68.4854L209.758 73.9793H217.482L217.815 73.2422L206.628 65.0013C205.163 66.1402 203.632 67.2793 202.233 68.4854Z" fill="#005288"/>
<path d="M194.177 73.9793H187.185L186.586 73.0412C191.314 68.4183 212.488 48.7203 258.498 46.6433C258.498 46.6433 219.945 47.9832 194.177 73.9793Z" fill="#A7A9AC"/>
</g>
<defs>
<clipPath id="clip0_284_893">
<rect width="221.051" height="27.403" fill="white" transform="translate(37.574 46.6433)"/>
</clipPath>
</defs>
</svg>
